<svg width="350" height="144" viewBox="0 0 350 144" fill="none" xmlns="http://www.w3.org/2000/svg">
<path d="M55.3735 2H343.374C345.583 2 347.374 3.79086 347.374 6V138C347.374 140.209 345.583 142 343.374 142H55.3735V2Z" fill="url(#paint0_linear_86_297)"/>
<path d="M55.3735 0H343.374C346.687 0 349.374 2.68629 349.374 6H345.374C345.374 4.89543 344.478 4 343.374 4H55.3735V0ZM349.374 138C349.374 141.314 346.687 144 343.374 144H55.3735V140H343.374C344.478 140 345.374 139.105 345.374 138H349.374ZM55.3735 142V2V142ZM343.374 0C346.687 0 349.374 2.68629 349.374 6V138C349.374 141.314 346.687 144 343.374 144V140C344.478 140 345.374 139.105 345.374 138V6C345.374 4.89543 344.478 4 343.374 4V0Z" fill="#0A7ACC"/>
<path d="M100.17 80C99.5662 80 99.035 79.9271 98.5767 79.7812C98.1287 79.625 97.7694 79.4479 97.4985 79.25C97.2902 80.7188 96.8371 82.0833 96.1392 83.3438C95.4412 84.6042 94.4621 85.6771 93.2017 86.5625C91.9517 87.4479 90.3735 88.0781 88.4673 88.4531L87.2798 85.2344C88.8944 84.8802 90.2225 84.375 91.2642 83.7188C92.3162 83.0729 93.0975 82.2604 93.6079 81.2812C94.1183 80.3125 94.3735 79.1615 94.3735 77.8281C94.3735 76.9115 94.2537 75.9219 94.0142 74.8594C93.7746 73.7969 93.4829 72.7552 93.1392 71.7344L96.436 70.6406L97.311 74.0312C97.5194 74.8229 97.8371 75.4219 98.2642 75.8281C98.6912 76.224 99.2694 76.4219 99.9985 76.4219H100.592V80H100.17ZM99.9673 80V76.4219H102.92V76.1094C102.92 75.0469 103.025 73.9479 103.233 72.8125C103.441 71.6771 103.775 70.6198 104.233 69.6406C104.691 68.6615 105.295 67.8698 106.045 67.2656C106.795 66.6615 107.712 66.3594 108.795 66.3594C109.733 66.3594 110.535 66.5833 111.202 67.0312C111.868 67.4792 112.379 68.099 112.733 68.8906C113.097 69.6719 113.28 70.5677 113.28 71.5781C113.28 72.5469 113.092 73.5052 112.717 74.4531C112.342 75.3906 111.827 76.2552 111.17 77.0469C110.525 77.8385 109.785 78.4948 108.952 79.0156C108.129 79.5365 107.259 79.8542 106.342 79.9688C106.467 80.4375 106.665 80.9115 106.936 81.3906C107.207 81.8802 107.53 82.349 107.905 82.7969C108.29 83.2448 108.712 83.6302 109.17 83.9531C109.275 82.8385 109.509 81.8177 109.874 80.8906C110.238 79.974 110.712 79.1823 111.295 78.5156C111.889 77.849 112.582 77.3333 113.374 76.9688C114.176 76.6042 115.056 76.4219 116.014 76.4219H116.53V80H115.983C115.295 80 114.702 80.0885 114.202 80.2656C113.712 80.4427 113.311 80.7188 112.999 81.0938C112.686 81.4688 112.452 81.9479 112.295 82.5312C112.15 83.125 112.077 83.8281 112.077 84.6406C112.077 84.8802 112.082 85.1354 112.092 85.4062C112.103 85.6771 112.118 85.9427 112.139 86.2031L109.858 88.3906C108.754 87.8385 107.738 87.125 106.811 86.25C105.894 85.3854 105.118 84.4167 104.483 83.3438C103.858 82.2708 103.426 81.1562 103.186 80H99.9673ZM108.702 69.8125C108.264 69.8125 107.879 69.9948 107.545 70.3594C107.222 70.7135 106.952 71.1927 106.733 71.7969C106.514 72.3906 106.347 73.0625 106.233 73.8125C106.129 74.5625 106.077 75.3281 106.077 76.1094V76.4375C106.847 76.4062 107.551 76.1771 108.186 75.75C108.832 75.3125 109.342 74.7396 109.717 74.0312C110.103 73.3229 110.295 72.5573 110.295 71.7344C110.295 71.1198 110.15 70.6458 109.858 70.3125C109.566 69.9792 109.181 69.8125 108.702 69.8125ZM130.139 58.6875L132.42 60.9688L130.139 63.25L127.858 60.9688L130.139 58.6875ZM132.842 62.6562L135.124 64.9375L132.842 67.2188L130.545 64.9375L132.842 62.6562ZM127.452 62.6562L129.733 64.9375L127.452 67.2188L125.155 64.9375L127.452 62.6562ZM126.795 80C125.66 80 124.754 79.8073 124.077 79.4219C123.4 79.026 122.853 78.4844 122.436 77.7969C121.905 78.4948 121.254 79.0365 120.483 79.4219C119.712 79.8073 118.665 80 117.342 80H115.905V76.4219H117.374C118.207 76.4219 118.884 76.3385 119.405 76.1719C119.926 76.0052 120.306 75.7083 120.545 75.2812C120.795 74.8438 120.92 74.2188 120.92 73.4062C120.92 73.2292 120.915 72.9948 120.905 72.7031C120.894 72.4115 120.874 72.0781 120.842 71.7031C120.811 71.3281 120.78 70.9323 120.749 70.5156L123.936 70.125L124.217 73.8125C124.269 74.6042 124.509 75.2396 124.936 75.7188C125.363 76.1875 125.993 76.4219 126.827 76.4219C127.827 76.4219 128.499 76.1771 128.842 75.6875C129.196 75.1979 129.374 74.4375 129.374 73.4062C129.374 73.2396 129.368 73.0104 129.358 72.7188C129.347 72.4167 129.327 72.0781 129.295 71.7031C129.264 71.3281 129.233 70.9323 129.202 70.5156L132.389 70.125L132.67 73.8125C132.712 74.5625 132.905 75.1875 133.249 75.6875C133.592 76.1771 134.16 76.4219 134.952 76.4219C135.462 76.4219 135.858 76.2917 136.139 76.0312C136.431 75.7604 136.639 75.401 136.764 74.9531C136.889 74.5052 136.952 74.0208 136.952 73.5C136.952 72.9479 136.905 72.3854 136.811 71.8125C136.728 71.2396 136.629 70.7083 136.514 70.2188C136.41 69.7188 136.316 69.3281 136.233 69.0469L139.514 68.1562C139.712 68.9167 139.874 69.7188 139.999 70.5625C140.124 71.4062 140.186 72.25 140.186 73.0938C140.186 74.2917 140.019 75.4167 139.686 76.4688C139.363 77.5208 138.821 78.3698 138.061 79.0156C137.311 79.6615 136.285 79.9896 134.983 80C134.004 80 133.202 79.8021 132.577 79.4062C131.952 79 131.436 78.4583 131.03 77.7812C130.467 78.5 129.837 79.0521 129.139 79.4375C128.441 79.8125 127.66 80 126.795 80ZM155.202 76.4688C156.337 76.4688 157.332 76.375 158.186 76.1875C159.051 76 159.722 75.7083 160.202 75.3125C160.681 74.9062 160.92 74.3698 160.92 73.7031C160.92 73.0469 160.655 72.3594 160.124 71.6406C159.603 70.9219 158.847 70.1927 157.858 69.4531C156.879 68.7031 155.686 67.9635 154.28 67.2344L155.827 64.0781C157.056 64.6927 158.181 65.349 159.202 66.0469C160.222 66.7448 161.103 67.4896 161.842 68.2812C162.582 69.0729 163.15 69.9115 163.545 70.7969C163.952 71.6719 164.155 72.6042 164.155 73.5938C164.155 75.0625 163.821 76.2708 163.155 77.2188C162.499 78.1562 161.525 78.849 160.233 79.2969C158.941 79.7448 157.342 79.9688 155.436 79.9688C154.686 79.9688 153.972 79.9375 153.295 79.875C152.629 79.8125 151.988 79.7135 151.374 79.5781V76.0156C152.051 76.151 152.722 76.2604 153.389 76.3438C154.056 76.4271 154.66 76.4688 155.202 76.4688ZM172.577 67.9219C173.472 67.9219 174.28 68.125 174.999 68.5312C175.728 68.9271 176.358 69.5 176.889 70.25C177.431 71 177.853 71.8958 178.155 72.9375C178.457 73.9792 178.634 75.1406 178.686 76.4219H180.264V80H178.405C178.103 81.3646 177.561 82.6094 176.78 83.7344C176.009 84.8594 174.931 85.8229 173.545 86.625C172.16 87.4271 170.405 88.0312 168.28 88.4375L167.077 85.2188C168.535 84.9271 169.827 84.5417 170.952 84.0625C172.077 83.5833 173.004 83.0052 173.733 82.3281C174.462 81.651 174.957 80.875 175.217 80H173.186C171.155 80 169.618 79.5833 168.577 78.75C167.545 77.9167 167.03 76.6198 167.03 74.8594C167.03 74.0885 167.144 73.2969 167.374 72.4844C167.613 71.6719 167.967 70.9219 168.436 70.2344C168.905 69.5469 169.483 68.9896 170.17 68.5625C170.868 68.1354 171.67 67.9219 172.577 67.9219ZM173.092 76.4219H175.514C175.462 75.6615 175.363 74.9792 175.217 74.375C175.082 73.7604 174.894 73.2344 174.655 72.7969C174.415 72.3594 174.118 72.026 173.764 71.7969C173.42 71.5677 173.014 71.4531 172.545 71.4531C171.952 71.4531 171.483 71.6406 171.139 72.0156C170.806 72.3802 170.571 72.8177 170.436 73.3281C170.301 73.8385 170.233 74.3021 170.233 74.7188C170.233 75.375 170.472 75.8229 170.952 76.0625C171.431 76.3021 172.144 76.4219 173.092 76.4219ZM179.639 76.4219H180.389V80H179.639V76.4219ZM182.858 82.1562L185.358 84.6562L182.858 87.1562L180.358 84.6562L182.858 82.1562ZM184.717 70.1094L187.889 69.7188L188.17 73.7344C188.202 74.3385 188.327 74.8438 188.545 75.25C188.764 75.6458 189.077 75.9427 189.483 76.1406C189.9 76.3281 190.42 76.4219 191.045 76.4219H191.374V80H191.014C190.275 80 189.624 79.9115 189.061 79.7344C188.499 79.5469 188.009 79.2917 187.592 78.9688C187.186 78.6354 186.832 78.2344 186.53 77.7656C185.946 78.5052 185.202 79.0625 184.295 79.4375C183.4 79.8125 182.457 80 181.467 80H179.967V76.4219H181.467C182.717 76.4219 183.592 76.1719 184.092 75.6719C184.603 75.1615 184.858 74.3333 184.858 73.1875C184.858 72.6458 184.842 72.1198 184.811 71.6094C184.79 71.099 184.759 70.599 184.717 70.1094ZM190.749 80V76.4219H193.702V76.1094C193.702 75.0469 193.806 73.9479 194.014 72.8125C194.222 71.6771 194.556 70.6198 195.014 69.6406C195.472 68.6615 196.077 67.8698 196.827 67.2656C197.577 66.6615 198.493 66.3594 199.577 66.3594C200.514 66.3594 201.316 66.5833 201.983 67.0312C202.65 67.4792 203.16 68.099 203.514 68.8906C203.879 69.6719 204.061 70.5677 204.061 71.5781C204.061 72.5469 203.874 73.5052 203.499 74.4531C203.124 75.3906 202.608 76.2552 201.952 77.0469C201.306 77.8385 200.566 78.4948 199.733 79.0156C198.91 79.5365 198.04 79.8542 197.124 79.9688C197.249 80.4375 197.446 80.9115 197.717 81.3906C197.988 81.8802 198.311 82.349 198.686 82.7969C199.071 83.2448 199.493 83.6302 199.952 83.9531C200.056 82.8385 200.29 81.8177 200.655 80.8906C201.019 79.974 201.493 79.1823 202.077 78.5156C202.67 77.849 203.363 77.3333 204.155 76.9688C204.957 76.6042 205.837 76.4219 206.795 76.4219H207.311V80H206.764C206.077 80 205.483 80.0885 204.983 80.2656C204.493 80.4427 204.092 80.7188 203.78 81.0938C203.467 81.4688 203.233 81.9479 203.077 82.5312C202.931 83.125 202.858 83.8281 202.858 84.6406C202.858 84.8802 202.863 85.1354 202.874 85.4062C202.884 85.6771 202.9 85.9427 202.92 86.2031L200.639 88.3906C199.535 87.8385 198.519 87.125 197.592 86.25C196.676 85.3854 195.9 84.4167 195.264 83.3438C194.639 82.2708 194.207 81.1562 193.967 80H190.749ZM199.483 69.8125C199.045 69.8125 198.66 69.9948 198.327 70.3594C198.004 70.7135 197.733 71.1927 197.514 71.7969C197.295 72.3906 197.129 73.0625 197.014 73.8125C196.91 74.5625 196.858 75.3281 196.858 76.1094V76.4375C197.629 76.4062 198.332 76.1771 198.967 75.75C199.613 75.3125 200.124 74.7396 200.499 74.0312C200.884 73.3229 201.077 72.5573 201.077 71.7344C201.077 71.1198 200.931 70.6458 200.639 70.3125C200.347 69.9792 199.962 69.8125 199.483 69.8125ZM206.67 76.4219H207.42V80H206.67V76.4219ZM209.889 82.1562L212.389 84.6562L209.889 87.1562L207.389 84.6562L209.889 82.1562ZM209.514 80H206.999V76.4219H209.514C210.441 76.4219 211.071 76.1458 211.405 75.5938C211.749 75.0417 211.92 74.3385 211.92 73.4844C211.92 72.7865 211.847 72.0417 211.702 71.25C211.556 70.4479 211.405 69.6458 211.249 68.8438L214.561 68C214.749 68.8958 214.894 69.7812 214.999 70.6562C215.113 71.5312 215.17 72.3646 215.17 73.1562C215.17 74.4688 214.993 75.6406 214.639 76.6719C214.285 77.7031 213.696 78.5156 212.874 79.1094C212.051 79.7031 210.931 80 209.514 80ZM238.077 76.9844C238.077 79.1823 237.67 81.0521 236.858 82.5938C236.045 84.1458 234.858 85.401 233.295 86.3594C231.743 87.3177 229.853 88.0104 227.624 88.4375L226.42 85.2188C227.941 84.9167 229.275 84.5104 230.42 84C231.577 83.5 232.509 82.8854 233.217 82.1562C233.936 81.4375 234.4 80.6146 234.608 79.6875C234.264 79.7812 233.884 79.8646 233.467 79.9375C233.051 80.0104 232.681 80.0469 232.358 80.0469C230.441 80.0469 228.962 79.6302 227.92 78.7969C226.889 77.9531 226.374 76.6406 226.374 74.8594C226.374 74.0573 226.493 73.25 226.733 72.4375C226.972 71.6146 227.327 70.8594 227.795 70.1719C228.275 69.4844 228.858 68.9323 229.545 68.5156C230.243 68.099 231.04 67.8906 231.936 67.8906C232.988 67.8906 233.9 68.1458 234.67 68.6562C235.441 69.1667 236.077 69.8594 236.577 70.7344C237.077 71.599 237.452 72.5729 237.702 73.6562C237.952 74.7292 238.077 75.8385 238.077 76.9844ZM232.374 76.4844C232.821 76.4844 233.259 76.4531 233.686 76.3906C234.113 76.3281 234.504 76.2448 234.858 76.1406C234.806 75.4844 234.707 74.8698 234.561 74.2969C234.426 73.7135 234.238 73.2031 233.999 72.7656C233.769 72.3281 233.478 71.9896 233.124 71.75C232.78 71.5104 232.374 71.3906 231.905 71.3906C231.301 71.3906 230.827 71.5833 230.483 71.9688C230.15 72.3542 229.915 72.8073 229.78 73.3281C229.644 73.849 229.577 74.3125 229.577 74.7188C229.577 75.3958 229.821 75.8594 230.311 76.1094C230.801 76.3594 231.488 76.4844 232.374 76.4844ZM262.53 74.7656C262.53 74.1719 262.41 73.6354 262.17 73.1562C261.941 72.6771 261.618 72.2917 261.202 72C260.795 71.7083 260.316 71.5625 259.764 71.5625C259.337 71.5625 258.957 71.6719 258.624 71.8906C258.29 72.099 257.999 72.3802 257.749 72.7344C257.499 73.0885 257.275 73.4844 257.077 73.9219C256.879 74.3594 256.712 74.8073 256.577 75.2656C257.202 75.5469 257.78 75.7969 258.311 76.0156C258.842 76.2344 259.311 76.4062 259.717 76.5312C260.134 76.6562 260.478 76.7188 260.749 76.7188C261.363 76.7188 261.811 76.5365 262.092 76.1719C262.384 75.7969 262.53 75.3281 262.53 74.7656ZM253.358 74.6875C253.639 73.7292 253.972 72.8542 254.358 72.0625C254.754 71.2604 255.207 70.5625 255.717 69.9688C256.238 69.375 256.827 68.9167 257.483 68.5938C258.15 68.2708 258.889 68.1094 259.702 68.1094C260.889 68.1094 261.936 68.3906 262.842 68.9531C263.749 69.5156 264.457 70.2969 264.967 71.2969C265.488 72.2969 265.749 73.4583 265.749 74.7812C265.749 75.8021 265.561 76.724 265.186 77.5469C264.821 78.3698 264.264 79.026 263.514 79.5156C262.764 80.0052 261.827 80.25 260.702 80.25C260.108 80.25 259.493 80.151 258.858 79.9531C258.222 79.7552 257.608 79.5312 257.014 79.2812C256.42 79.0208 255.879 78.7917 255.389 78.5938C254.9 78.3958 254.499 78.2969 254.186 78.2969C253.832 78.2969 253.545 78.4167 253.327 78.6562C253.108 78.8854 252.941 79.2396 252.827 79.7188C252.712 80.1979 252.629 80.8021 252.577 81.5312C252.535 82.2708 252.514 83.1458 252.514 84.1562C252.514 84.9375 252.525 85.6719 252.545 86.3594C252.577 87.0469 252.613 87.6875 252.655 88.2812C252.696 88.875 252.733 89.4323 252.764 89.9531H249.374C249.321 88.9219 249.275 87.9375 249.233 87C249.202 86.0729 249.186 85.151 249.186 84.2344C249.186 82.9844 249.222 81.8177 249.295 80.7344C249.379 79.651 249.556 78.6875 249.827 77.8438C250.097 77 250.514 76.3073 251.077 75.7656C251.639 75.224 252.4 74.8646 253.358 74.6875ZM272.795 58.3125V79.9844H269.467V58.3125H272.795ZM285.483 73.8438C285.483 73.5833 285.42 73.2396 285.295 72.8125C285.181 72.375 285.051 71.9896 284.905 71.6562L281.999 65.1562L284.999 63.7188L288.686 72.3281C289.092 73.276 289.452 74.0521 289.764 74.6562C290.077 75.2604 290.4 75.7083 290.733 76C291.066 76.2812 291.467 76.4219 291.936 76.4219H292.592V80H291.936C291.134 80 290.462 79.901 289.92 79.7031C289.379 79.5052 288.91 79.2188 288.514 78.8438C288.118 78.4583 287.733 77.9948 287.358 77.4531C286.858 78.0156 286.275 78.4844 285.608 78.8594C284.952 79.2344 284.196 79.5156 283.342 79.7031C282.499 79.8906 281.53 79.9844 280.436 79.9844C279.634 79.9844 278.926 79.9531 278.311 79.8906C277.707 79.8177 277.113 79.7135 276.53 79.5781V76.0156C277.165 76.1615 277.795 76.2708 278.42 76.3438C279.045 76.4167 279.639 76.4531 280.202 76.4531C281.254 76.4531 282.17 76.3646 282.952 76.1875C283.743 76.0104 284.363 75.7292 284.811 75.3438C285.259 74.9583 285.483 74.4583 285.483 73.8438ZM301.717 56.0156L304.124 58.4062L301.717 60.8281L299.342 58.4062L301.717 56.0156ZM296.499 56.0156L298.905 58.4062L296.499 60.8281L294.108 58.4062L296.499 56.0156ZM299.702 70.9531C300.15 70.9531 300.592 70.9219 301.03 70.8594C301.478 70.7865 301.92 70.6927 302.358 70.5781C302.295 70.1094 302.196 69.625 302.061 69.125C301.926 68.6146 301.743 68.1458 301.514 67.7188C301.295 67.2917 301.019 66.9479 300.686 66.6875C300.353 66.4167 299.952 66.2812 299.483 66.2812C298.931 66.2812 298.478 66.4531 298.124 66.7969C297.78 67.1302 297.525 67.5365 297.358 68.0156C297.191 68.4948 297.108 68.9583 297.108 69.4062C297.108 70.0521 297.337 70.474 297.795 70.6719C298.264 70.8594 298.9 70.9531 299.702 70.9531ZM297.905 76.4219C298.957 76.4219 299.816 76.3646 300.483 76.25C301.16 76.1354 301.66 75.8906 301.983 75.5156C302.316 75.1406 302.488 74.5625 302.499 73.7812C302.051 73.8958 301.587 73.9844 301.108 74.0469C300.629 74.1094 300.129 74.1406 299.608 74.1406C297.816 74.1406 296.431 73.7708 295.452 73.0312C294.483 72.2812 293.999 71.1198 293.999 69.5469C293.999 68.4948 294.217 67.4531 294.655 66.4219C295.092 65.3802 295.722 64.5208 296.545 63.8438C297.379 63.1562 298.368 62.8125 299.514 62.8125C300.597 62.8125 301.525 63.0885 302.295 63.6406C303.077 64.1823 303.712 64.9115 304.202 65.8281C304.691 66.7448 305.056 67.776 305.295 68.9219C305.535 70.0677 305.655 71.2448 305.655 72.4531C305.655 74.0365 305.504 75.3229 305.202 76.3125C304.9 77.3021 304.431 78.0677 303.795 78.6094C303.16 79.1406 302.342 79.5052 301.342 79.7031C300.342 79.901 299.134 80 297.717 80H291.967V76.4219H297.905ZM312.702 58.3125V79.9844H309.374V58.3125H312.702Z" fill="white"/>
<path d="M2.97304 5.24939C1.92542 3.93986 2.85777 2 4.53478 2H54.3735C55.4781 2 56.3735 2.89543 56.3735 4V140C56.3735 141.105 55.4781 142 54.3735 142H4.53479C2.85777 142 1.92543 140.06 2.97305 138.751L55.374 73.2494C55.9584 72.5189 55.9584 71.481 55.374 70.7506L2.97304 5.24939Z" fill="url(#paint1_linear_86_297)"/>
<path d="M56.3735 2H4.53478C2.85777 2 1.92542 3.93986 2.97304 5.24939L55.374 70.7506C55.9584 71.481 55.9584 72.5189 55.374 73.2494L2.97305 138.751C1.92543 140.06 2.85777 142 4.53479 142H56.3735" stroke="#0A7ACC" stroke-width="4"/>
<defs>
<linearGradient id="paint0_linear_86_297" x1="201.374" y1="2" x2="201.374" y2="142" gradientUnits="userSpaceOnUse">
<stop stop-color="#61B4F1"/>
<stop offset="0.0572917" stop-color="#0D99FF"/>
<stop offset="0.947917" stop-color="#0D99FF"/>
<stop offset="1" stop-color="#084782"/>
</linearGradient>
<linearGradient id="paint1_linear_86_297" x1="28.3735" y1="2" x2="28.3735" y2="142" gradientUnits="userSpaceOnUse">
<stop stop-color="#61B4F1"/>
<stop offset="0.0572917" stop-color="#0D99FF"/>
<stop offset="0.947917" stop-color="#0D99FF"/>
<stop offset="1" stop-color="#084782"/>
</linearGradient>
</defs>
</svg>
