<svg width="440" height="144" viewBox="0 0 440 144" fill="none" xmlns="http://www.w3.org/2000/svg">
<path d="M381.569 2C382.176 2 382.751 2.27618 383.13 2.75061L437.53 70.7506C438.115 71.481 438.115 72.519 437.53 73.2494L383.13 141.249C382.751 141.724 382.176 142 381.569 142H379.53C378.425 142 377.53 141.105 377.53 140V4C377.53 2.89543 378.425 2 379.53 2H381.569Z" fill="url(#paint0_linear_86_291)"/>
<path d="M377.53 2H381.569C382.176 2 382.751 2.27618 383.13 2.75061L436.531 69.5012C437.7 70.9621 437.7 73.0379 436.531 74.4988L383.13 141.249C382.751 141.724 382.176 142 381.569 142H377.53" stroke="#E8A034" stroke-width="4"/>
<path d="M2.52988 6C2.52988 3.79086 4.32074 2 6.52988 2H381.53V142H6.52987C4.32073 142 2.52988 140.209 2.52988 138V6Z" fill="url(#paint1_linear_86_291)"/>
<path d="M0.529877 6C0.529877 2.68629 3.21617 0 6.52988 0H381.53V4H6.52988C5.42531 4 4.52988 4.89543 4.52988 6H0.529877ZM381.53 144H6.52988C3.21617 144 0.529877 141.314 0.529877 138H4.52988C4.52988 139.105 5.42531 140 6.52988 140H381.53V144ZM6.52988 144C3.21617 144 0.529877 141.314 0.529877 138V6C0.529877 2.68629 3.21617 0 6.52988 0V4C5.42531 4 4.52988 4.89543 4.52988 6V138C4.52988 139.105 5.42531 140 6.52988 140V144ZM381.53 2V142V2Z" fill="#E8A034"/>
<path d="M45.7018 87.8906C43.4518 87.8906 41.6288 87.4688 40.233 86.625C38.8372 85.7917 37.8163 84.6667 37.1705 83.25C36.5351 81.8333 36.2174 80.2552 36.2174 78.5156C36.2174 77.349 36.3372 76.151 36.5768 74.9219C36.8268 73.6823 37.1757 72.4688 37.6236 71.2812L40.6861 72.4844C40.3528 73.4948 40.0663 74.5156 39.8268 75.5469C39.5976 76.5781 39.483 77.5625 39.483 78.5C39.483 79.5625 39.6705 80.5365 40.0455 81.4219C40.4309 82.3177 41.0715 83.026 41.9674 83.5469C42.8736 84.0781 44.1184 84.3438 45.7018 84.3438C46.8372 84.3438 47.8632 84.2344 48.7799 84.0156C49.707 83.8073 50.4934 83.526 51.1393 83.1719C51.7851 82.8281 52.2799 82.4479 52.6236 82.0312C52.9778 81.6146 53.1549 81.2083 53.1549 80.8125C53.1549 80.5625 53.082 80.3385 52.9361 80.1406C52.7903 79.9427 52.5247 79.8438 52.1393 79.8438H49.608C48.9413 79.8438 48.3268 79.7656 47.7643 79.6094C47.2122 79.4531 46.7382 79.1979 46.3424 78.8438C45.9465 78.4896 45.6393 78.0156 45.4205 77.4219C45.2018 76.8281 45.0924 76.0938 45.0924 75.2188C45.0924 74.1667 45.259 73.1667 45.5924 72.2188C45.9361 71.2604 46.4205 70.4115 47.0455 69.6719C47.6705 68.9219 48.4257 68.3333 49.3111 67.9062C50.207 67.4792 51.207 67.2656 52.3111 67.2656C52.957 67.2656 53.6132 67.3594 54.2799 67.5469C54.9465 67.7344 55.5924 68.0417 56.2174 68.4688L55.0768 71.5469C54.5976 71.2969 54.1288 71.1198 53.6705 71.0156C53.2122 70.901 52.7643 70.8438 52.3268 70.8438C51.5038 70.8438 50.7955 71.0365 50.2018 71.4219C49.6184 71.8073 49.1705 72.3333 48.858 73C48.5455 73.6562 48.3893 74.3958 48.3893 75.2188C48.3893 75.6146 48.483 75.8906 48.6705 76.0469C48.858 76.2031 49.1809 76.2812 49.6393 76.2812H52.1236C53.1861 76.2812 54.0143 76.4635 54.608 76.8281C55.2122 77.1927 55.6393 77.6927 55.8893 78.3281C56.1393 78.9635 56.2643 79.6927 56.2643 80.5156C56.2643 81.5052 56.0351 82.4375 55.5768 83.3125C55.1184 84.1979 54.4361 84.9844 53.5299 85.6719C52.634 86.3594 51.5299 86.901 50.2174 87.2969C48.9049 87.6927 47.3997 87.8906 45.7018 87.8906ZM70.0611 80C69.457 80 68.9257 79.9271 68.4674 79.7812C68.0195 79.625 67.6601 79.4479 67.3893 79.25C67.1809 80.7188 66.7278 82.0833 66.0299 83.3438C65.332 84.6042 64.3528 85.6771 63.0924 86.5625C61.8424 87.4479 60.2643 88.0781 58.358 88.4531L57.1705 85.2344C58.7851 84.8802 60.1132 84.375 61.1549 83.7188C62.207 83.0729 62.9882 82.2604 63.4986 81.2812C64.009 80.3125 64.2643 79.1615 64.2643 77.8281C64.2643 76.9115 64.1445 75.9219 63.9049 74.8594C63.6653 73.7969 63.3736 72.7552 63.0299 71.7344L66.3268 70.6406L67.2018 74.0312C67.4101 74.8229 67.7278 75.4219 68.1549 75.8281C68.582 76.224 69.1601 76.4219 69.8893 76.4219H70.483V80H70.0611ZM69.858 80V76.4219H72.8111V76.1094C72.8111 75.0469 72.9153 73.9479 73.1236 72.8125C73.332 71.6771 73.6653 70.6198 74.1236 69.6406C74.582 68.6615 75.1861 67.8698 75.9361 67.2656C76.6861 66.6615 77.6028 66.3594 78.6861 66.3594C79.6236 66.3594 80.4257 66.5833 81.0924 67.0312C81.759 67.4792 82.2695 68.099 82.6236 68.8906C82.9882 69.6719 83.1705 70.5677 83.1705 71.5781C83.1705 72.5469 82.983 73.5052 82.608 74.4531C82.233 75.3906 81.7174 76.2552 81.0611 77.0469C80.4153 77.8385 79.6757 78.4948 78.8424 79.0156C78.0195 79.5365 77.1497 79.8542 76.233 79.9688C76.358 80.4375 76.5559 80.9115 76.8268 81.3906C77.0976 81.8802 77.4205 82.349 77.7955 82.7969C78.1809 83.2448 78.6028 83.6302 79.0611 83.9531C79.1653 82.8385 79.3997 81.8177 79.7643 80.8906C80.1288 79.974 80.6028 79.1823 81.1861 78.5156C81.7799 77.849 82.4726 77.3333 83.2643 76.9688C84.0663 76.6042 84.9465 76.4219 85.9049 76.4219H86.4205V80H85.8736C85.1861 80 84.5924 80.0885 84.0924 80.2656C83.6028 80.4427 83.2018 80.7188 82.8893 81.0938C82.5768 81.4688 82.3424 81.9479 82.1861 82.5312C82.0403 83.125 81.9674 83.8281 81.9674 84.6406C81.9674 84.8802 81.9726 85.1354 81.983 85.4062C81.9934 85.6771 82.009 85.9427 82.0299 86.2031L79.7486 88.3906C78.6445 87.8385 77.6288 87.125 76.7018 86.25C75.7851 85.3854 75.009 84.4167 74.3736 83.3438C73.7486 82.2708 73.3163 81.1562 73.0768 80H69.858ZM78.5924 69.8125C78.1549 69.8125 77.7695 69.9948 77.4361 70.3594C77.1132 70.7135 76.8424 71.1927 76.6236 71.7969C76.4049 72.3906 76.2382 73.0625 76.1236 73.8125C76.0195 74.5625 75.9674 75.3281 75.9674 76.1094V76.4375C76.7382 76.4062 77.4413 76.1771 78.0768 75.75C78.7226 75.3125 79.233 74.7396 79.608 74.0312C79.9934 73.3229 80.1861 72.5573 80.1861 71.7344C80.1861 71.1198 80.0403 70.6458 79.7486 70.3125C79.457 69.9792 79.0715 69.8125 78.5924 69.8125ZM100.03 58.6875L102.311 60.9688L100.03 63.25L97.7486 60.9688L100.03 58.6875ZM102.733 62.6562L105.014 64.9375L102.733 67.2188L100.436 64.9375L102.733 62.6562ZM97.3424 62.6562L99.6236 64.9375L97.3424 67.2188L95.0455 64.9375L97.3424 62.6562ZM96.6861 80C95.5507 80 94.6445 79.8073 93.9674 79.4219C93.2903 79.026 92.7434 78.4844 92.3268 77.7969C91.7955 78.4948 91.1445 79.0365 90.3736 79.4219C89.6028 79.8073 88.5559 80 87.233 80H85.7955V76.4219H87.2643C88.0976 76.4219 88.7747 76.3385 89.2955 76.1719C89.8163 76.0052 90.1965 75.7083 90.4361 75.2812C90.6861 74.8438 90.8111 74.2188 90.8111 73.4062C90.8111 73.2292 90.8059 72.9948 90.7955 72.7031C90.7851 72.4115 90.7643 72.0781 90.733 71.7031C90.7018 71.3281 90.6705 70.9323 90.6393 70.5156L93.8268 70.125L94.108 73.8125C94.1601 74.6042 94.3997 75.2396 94.8268 75.7188C95.2538 76.1875 95.884 76.4219 96.7174 76.4219C97.7174 76.4219 98.3893 76.1771 98.733 75.6875C99.0872 75.1979 99.2643 74.4375 99.2643 73.4062C99.2643 73.2396 99.259 73.0104 99.2486 72.7188C99.2382 72.4167 99.2174 72.0781 99.1861 71.7031C99.1549 71.3281 99.1236 70.9323 99.0924 70.5156L102.28 70.125L102.561 73.8125C102.603 74.5625 102.796 75.1875 103.139 75.6875C103.483 76.1771 104.051 76.4219 104.842 76.4219C105.353 76.4219 105.749 76.2917 106.03 76.0312C106.322 75.7604 106.53 75.401 106.655 74.9531C106.78 74.5052 106.842 74.0208 106.842 73.5C106.842 72.9479 106.796 72.3854 106.702 71.8125C106.618 71.2396 106.519 70.7083 106.405 70.2188C106.301 69.7188 106.207 69.3281 106.124 69.0469L109.405 68.1562C109.603 68.9167 109.764 69.7188 109.889 70.5625C110.014 71.4062 110.077 72.25 110.077 73.0938C110.077 74.2917 109.91 75.4167 109.577 76.4688C109.254 77.5208 108.712 78.3698 107.952 79.0156C107.202 79.6615 106.176 79.9896 104.874 80C103.894 80 103.092 79.8021 102.467 79.4062C101.842 79 101.327 78.4583 100.921 77.7812C100.358 78.5 99.7278 79.0521 99.0299 79.4375C98.332 79.8125 97.5507 80 96.6861 80ZM129.952 87.75C127.973 87.75 126.337 87.3958 125.046 86.6875C123.764 85.9792 122.811 84.9688 122.186 83.6562C121.572 82.3542 121.264 80.8125 121.264 79.0312C121.264 77.8854 121.389 76.7031 121.639 75.4844C121.889 74.2552 122.233 73.0677 122.671 71.9219L125.717 73.125C125.405 74.0729 125.124 75.0729 124.874 76.125C124.634 77.1667 124.514 78.1562 124.514 79.0938C124.514 80.1771 124.702 81.099 125.077 81.8594C125.462 82.6302 126.051 83.2135 126.842 83.6094C127.644 84.0156 128.681 84.2188 129.952 84.2188C131.171 84.2188 132.155 83.9896 132.905 83.5312C133.665 83.0833 134.223 82.4062 134.577 81.5C134.931 80.6042 135.108 79.4792 135.108 78.125V58.3125H138.436V72.9219C138.436 74.0156 138.624 74.875 138.999 75.5C139.374 76.1146 140.134 76.4219 141.28 76.4219H141.749V80H141.311C140.54 80 139.957 79.9219 139.561 79.7656C139.176 79.599 138.78 79.3438 138.374 79C138.332 80.4167 138.129 81.6667 137.764 82.75C137.4 83.8438 136.868 84.7604 136.171 85.5C135.483 86.25 134.618 86.8125 133.577 87.1875C132.546 87.5625 131.337 87.75 129.952 87.75ZM145.733 65.1562C146.493 65.6562 147.207 66.1406 147.874 66.6094C148.54 67.0677 149.16 67.526 149.733 67.9844C150.306 68.4427 150.827 68.9219 151.296 69.4219C151.775 69.9115 152.202 70.4427 152.577 71.0156C152.962 71.5885 153.296 72.2135 153.577 72.8906C153.921 73.724 154.259 74.401 154.592 74.9219C154.936 75.4427 155.348 75.8229 155.827 76.0625C156.306 76.3021 156.921 76.4219 157.671 76.4219H158.108V80H157.671C156.473 80 155.457 79.7969 154.624 79.3906C153.801 78.974 153.082 78.2969 152.467 77.3594C151.999 77.974 151.452 78.4792 150.827 78.875C150.212 79.2604 149.436 79.5469 148.499 79.7344C147.572 79.9115 146.389 80 144.952 80H141.139V76.4219H144.936C146.186 76.4219 147.202 76.3594 147.983 76.2344C148.775 76.099 149.358 75.8646 149.733 75.5312C150.118 75.1979 150.311 74.7292 150.311 74.125C150.311 73.6979 150.144 73.2604 149.811 72.8125C149.488 72.3542 149.056 71.8958 148.514 71.4375C147.973 70.9688 147.379 70.5104 146.733 70.0625C146.087 69.6042 145.436 69.151 144.78 68.7031C144.124 68.2552 143.519 67.8177 142.967 67.3906C142.592 67.099 142.301 66.7396 142.092 66.3125C141.894 65.875 141.796 65.4271 141.796 64.9688C141.796 64.4583 141.921 63.9948 142.171 63.5781C142.431 63.151 142.827 62.8333 143.358 62.625L154.952 57.9062V61.4219L145.733 65.1562ZM171.717 58.6875L173.999 60.9688L171.717 63.25L169.436 60.9688L171.717 58.6875ZM174.421 62.6562L176.702 64.9375L174.421 67.2188L172.124 64.9375L174.421 62.6562ZM169.03 62.6562L171.311 64.9375L169.03 67.2188L166.733 64.9375L169.03 62.6562ZM176.561 80C175.592 80 174.79 79.8021 174.155 79.4062C173.53 79 173.014 78.4583 172.608 77.7812C172.046 78.5 171.415 79.0521 170.717 79.4375C170.019 79.8125 169.238 80 168.374 80C167.238 80 166.332 79.8073 165.655 79.4219C164.978 79.026 164.431 78.4844 164.014 77.7969C163.483 78.4948 162.832 79.0365 162.061 79.4219C161.29 79.8073 160.243 80 158.921 80H157.483V76.4219H158.952C159.785 76.4219 160.462 76.3385 160.983 76.1719C161.504 76.0052 161.884 75.7083 162.124 75.2812C162.374 74.8438 162.499 74.2188 162.499 73.4062C162.499 73.2292 162.493 72.9948 162.483 72.7031C162.473 72.4115 162.452 72.0781 162.421 71.7031C162.389 71.3281 162.358 70.9323 162.327 70.5156L165.514 70.125L165.796 73.8125C165.848 74.6042 166.087 75.2396 166.514 75.7188C166.941 76.1875 167.572 76.4219 168.405 76.4219C169.405 76.4219 170.077 76.1771 170.421 75.6875C170.775 75.1979 170.952 74.4375 170.952 73.4062C170.952 73.2396 170.947 73.0104 170.936 72.7188C170.926 72.4167 170.905 72.0781 170.874 71.7031C170.842 71.3281 170.811 70.9323 170.78 70.5156L173.967 70.125L174.249 73.8125C174.29 74.5625 174.483 75.1875 174.827 75.6875C175.181 76.1771 175.749 76.4219 176.53 76.4219C177.009 76.4219 177.394 76.3073 177.686 76.0781C177.988 75.8385 178.207 75.4948 178.342 75.0469C178.488 74.599 178.561 74.0521 178.561 73.4062C178.561 73.0312 178.546 72.5781 178.514 72.0469C178.483 71.5052 178.441 70.9062 178.389 70.25L181.577 69.8594L181.858 73.8125C181.91 74.7083 182.165 75.3698 182.624 75.7969C183.092 76.2135 183.769 76.4219 184.655 76.4219H185.124V80H184.686C183.655 80 182.769 79.8177 182.03 79.4531C181.301 79.0781 180.769 78.5365 180.436 77.8281C179.999 78.4948 179.483 79.026 178.889 79.4219C178.296 79.8073 177.519 80 176.561 80ZM194.702 71.5469C194.223 71.5469 193.785 71.7083 193.389 72.0312C193.004 72.3438 192.655 72.7448 192.342 73.2344C192.04 73.724 191.775 74.2135 191.546 74.7031C191.868 75.0156 192.181 75.2917 192.483 75.5312C192.785 75.7708 193.077 75.974 193.358 76.1406C193.764 76.3906 194.144 76.5729 194.499 76.6875C194.853 76.8021 195.171 76.8594 195.452 76.8594C196.129 76.8594 196.624 76.6615 196.936 76.2656C197.259 75.8698 197.421 75.3438 197.421 74.6875C197.421 73.7917 197.181 73.0469 196.702 72.4531C196.223 71.849 195.556 71.5469 194.702 71.5469ZM195.452 80.3594C194.743 80.3594 194.072 80.2552 193.436 80.0469C192.811 79.8385 192.197 79.5417 191.592 79.1562C190.988 78.7708 190.374 78.3073 189.749 77.7656C189.332 78.2135 188.921 78.6094 188.514 78.9531C188.118 79.2865 187.66 79.5469 187.139 79.7344C186.618 79.9115 185.973 80 185.202 80H184.514V76.4219H185.124C185.738 76.4219 186.269 76.224 186.717 75.8281C187.165 75.4219 187.577 74.9062 187.952 74.2812C188.337 73.6458 188.723 72.974 189.108 72.2656C189.504 71.5573 189.947 70.8854 190.436 70.25C190.926 69.6146 191.504 69.099 192.171 68.7031C192.848 68.3073 193.66 68.1094 194.608 68.1094C195.837 68.1094 196.9 68.401 197.796 68.9844C198.702 69.5677 199.4 70.349 199.889 71.3281C200.389 72.2969 200.639 73.3646 200.639 74.5312C200.639 75.7083 200.441 76.7344 200.046 77.6094C199.65 78.474 199.066 79.151 198.296 79.6406C197.525 80.1198 196.577 80.3594 195.452 80.3594ZM237.061 58.6875L239.342 60.9688L237.061 63.25L234.78 60.9688L237.061 58.6875ZM239.764 62.6562L242.046 64.9375L239.764 67.2188L237.467 64.9375L239.764 62.6562ZM234.374 62.6562L236.655 64.9375L234.374 67.2188L232.077 64.9375L234.374 62.6562ZM233.717 80C233.113 80 232.587 79.9219 232.139 79.7656C231.691 79.599 231.301 79.401 230.967 79.1719C230.874 80.9323 230.462 82.4792 229.733 83.8125C229.004 85.1458 227.941 86.1823 226.546 86.9219C225.15 87.6719 223.41 88.0469 221.327 88.0469C219.077 88.0469 217.254 87.625 215.858 86.7812C214.462 85.9479 213.441 84.8229 212.796 83.4062C212.16 81.9896 211.842 80.4115 211.842 78.6719C211.842 77.5052 211.962 76.3073 212.202 75.0781C212.452 73.8385 212.801 72.625 213.249 71.4375L216.311 72.6406C215.978 73.651 215.691 74.6719 215.452 75.7031C215.223 76.7344 215.108 77.7188 215.108 78.6562C215.108 79.7188 215.296 80.6927 215.671 81.5781C216.056 82.474 216.697 83.1823 217.592 83.7031C218.499 84.2344 219.743 84.5 221.327 84.5C222.962 84.5 224.233 84.2344 225.139 83.7031C226.056 83.1823 226.702 82.4792 227.077 81.5938C227.462 80.7188 227.655 79.7552 227.655 78.7031C227.655 77.5156 227.478 76.3229 227.124 75.125C226.78 73.9167 226.431 72.8594 226.077 71.9531L229.405 70.6719L230.389 73.7344C230.66 74.5677 231.061 75.224 231.592 75.7031C232.124 76.1823 232.842 76.4219 233.749 76.4219C234.749 76.4219 235.421 76.1667 235.764 75.6562C236.118 75.1458 236.296 74.3802 236.296 73.3594C236.296 73.1823 236.29 72.9531 236.28 72.6719C236.269 72.3906 236.249 72.0677 236.217 71.7031C236.186 71.3281 236.155 70.9323 236.124 70.5156L239.311 70.125L239.592 73.8125C239.644 74.5625 239.837 75.1875 240.171 75.6875C240.514 76.1771 241.087 76.4219 241.889 76.4219C242.389 76.4219 242.78 76.2917 243.061 76.0312C243.353 75.7604 243.561 75.401 243.686 74.9531C243.811 74.5052 243.874 74.0208 243.874 73.5C243.874 72.9479 243.827 72.3854 243.733 71.8125C243.65 71.2396 243.551 70.7083 243.436 70.2188C243.332 69.7188 243.243 69.3281 243.171 69.0469L246.436 68.1562C246.634 68.9167 246.796 69.7188 246.921 70.5625C247.046 71.4062 247.108 72.25 247.108 73.0938C247.108 74.2917 246.941 75.4167 246.608 76.4688C246.285 77.5208 245.749 78.3698 244.999 79.0156C244.249 79.6615 243.217 79.9896 241.905 80C240.926 80 240.124 79.8021 239.499 79.4062C238.874 79 238.358 78.4583 237.952 77.7812C237.389 78.5 236.759 79.0521 236.061 79.4375C235.374 79.8125 234.592 80 233.717 80ZM246.78 88.4531L245.577 85.2344C247.191 84.8802 248.519 84.375 249.561 83.7188C250.613 83.0729 251.394 82.2604 251.905 81.2812C252.415 80.3125 252.671 79.1615 252.671 77.8281C252.671 76.9115 252.551 75.9219 252.311 74.8594C252.072 73.7969 251.78 72.7552 251.436 71.7344L254.733 70.6406C255.118 71.7344 255.41 72.8594 255.608 74.0156C255.816 75.1719 255.921 76.2917 255.921 77.375C255.921 79.3125 255.572 81.0417 254.874 82.5625C254.176 84.0833 253.15 85.349 251.796 86.3594C250.441 87.3698 248.769 88.0677 246.78 88.4531ZM262.967 58.3125V79.9844H259.639V58.3125H262.967ZM269.702 63L272.202 65.5L269.702 68L267.202 65.5L269.702 63ZM275.499 80C274.894 80 274.363 79.9271 273.905 79.7812C273.457 79.625 273.098 79.4479 272.827 79.25C272.618 80.7188 272.165 82.0833 271.467 83.3438C270.769 84.6042 269.79 85.6771 268.53 86.5625C267.28 87.4479 265.702 88.0781 263.796 88.4531L262.608 85.2344C264.223 84.8802 265.551 84.375 266.592 83.7188C267.644 83.0729 268.426 82.2604 268.936 81.2812C269.447 80.3125 269.702 79.1615 269.702 77.8281C269.702 76.9115 269.582 75.9219 269.342 74.8594C269.103 73.7969 268.811 72.7552 268.467 71.7344L271.764 70.6406L272.639 74.0312C272.848 74.8229 273.165 75.4219 273.592 75.8281C274.019 76.224 274.598 76.4219 275.327 76.4219H275.921V80H275.499ZM276.717 61.1719V59.1719L288.952 54.2031V56.2031L276.717 61.1719ZM279.889 65.1562C280.66 65.6667 281.426 66.1823 282.186 66.7031C282.947 67.224 283.66 67.7604 284.327 68.3125C284.993 68.8646 285.582 69.4479 286.092 70.0625C286.613 70.6771 287.019 71.3281 287.311 72.0156C287.603 72.6927 287.749 73.4167 287.749 74.1875C287.749 75.6354 287.421 76.7812 286.764 77.625C286.108 78.4688 285.134 79.0781 283.842 79.4531C282.561 79.8177 280.983 80 279.108 80H275.296V76.4219H279.092C280.342 76.4219 281.358 76.3594 282.139 76.2344C282.931 76.099 283.514 75.8646 283.889 75.5312C284.275 75.1979 284.467 74.7292 284.467 74.125C284.467 73.6979 284.301 73.2604 283.967 72.8125C283.644 72.3542 283.212 71.8958 282.671 71.4375C282.129 70.9688 281.535 70.5104 280.889 70.0625C280.243 69.6042 279.592 69.151 278.936 68.7031C278.28 68.2552 277.676 67.8177 277.124 67.3906C276.749 67.099 276.457 66.7396 276.249 66.3125C276.051 65.8854 275.952 65.4479 275.952 65C275.952 64.5104 276.077 64.0469 276.327 63.6094C276.587 63.1615 276.983 62.8333 277.514 62.625L289.108 57.9062V61.4219L279.889 65.1562ZM315.358 63.875L317.764 66.2656L315.358 68.6875L312.983 66.2656L315.358 63.875ZM310.139 63.875L312.546 66.2656L310.139 68.6875L307.749 66.2656L310.139 63.875ZM321.842 70.1094L325.014 69.7188L325.311 73.7344C325.363 74.6406 325.613 75.3177 326.061 75.7656C326.509 76.2031 327.202 76.4219 328.139 76.4219H328.514V80H328.139C326.962 80 325.983 79.7812 325.202 79.3438C324.431 78.8958 323.796 78.2292 323.296 77.3438C322.4 78.2917 321.275 78.974 319.921 79.3906C318.566 79.7969 316.738 80 314.436 80H311.827C309.931 80 308.233 79.8802 306.733 79.6406C305.243 79.401 303.978 79 302.936 78.4375C301.894 77.875 301.098 77.1198 300.546 76.1719C300.004 75.224 299.733 74.0312 299.733 72.5938C299.733 71.7812 299.822 70.9896 299.999 70.2188C300.186 69.4375 300.421 68.7031 300.702 68.0156L303.702 69.1406C303.535 69.6094 303.379 70.1354 303.233 70.7188C303.098 71.2917 303.03 71.8385 303.03 72.3594C303.03 73.2135 303.233 73.9062 303.639 74.4375C304.056 74.9688 304.644 75.3802 305.405 75.6719C306.176 75.9531 307.098 76.151 308.171 76.2656C309.254 76.3698 310.473 76.4219 311.827 76.4219H314.436C316.03 76.4219 317.389 76.3333 318.514 76.1562C319.639 75.9792 320.499 75.6562 321.092 75.1875C321.697 74.7188 321.999 74.0469 321.999 73.1719C321.999 72.7031 321.983 72.1927 321.952 71.6406C321.921 71.0781 321.884 70.5677 321.842 70.1094ZM327.874 76.4219H328.624V80H327.874V76.4219ZM331.092 82.1562L333.592 84.6562L331.092 87.1562L328.592 84.6562L331.092 82.1562ZM332.952 70.1094L336.124 69.7188L336.405 73.7344C336.436 74.3385 336.561 74.8438 336.78 75.25C336.999 75.6458 337.311 75.9427 337.717 76.1406C338.134 76.3281 338.655 76.4219 339.28 76.4219H339.608V80H339.249C338.509 80 337.858 79.9115 337.296 79.7344C336.733 79.5469 336.243 79.2917 335.827 78.9688C335.421 78.6354 335.066 78.2344 334.764 77.7656C334.181 78.5052 333.436 79.0625 332.53 79.4375C331.634 79.8125 330.691 80 329.702 80H328.202V76.4219H329.702C330.952 76.4219 331.827 76.1719 332.327 75.6719C332.837 75.1615 333.092 74.3333 333.092 73.1875C333.092 72.6458 333.077 72.1198 333.046 71.6094C333.025 71.099 332.993 70.599 332.952 70.1094ZM338.967 76.4219H340.092V80H338.967V76.4219ZM343.264 57.3438L345.546 59.625L343.264 61.9219L340.983 59.625L343.264 57.3438ZM345.967 61.3125L348.249 63.5938L345.967 65.8906L343.671 63.5938L345.967 61.3125ZM340.577 61.3125L342.858 63.5938L340.577 65.8906L338.28 63.5938L340.577 61.3125ZM342.186 80H339.671V76.4219H342.186C343.113 76.4219 343.743 76.1458 344.077 75.5938C344.421 75.0417 344.592 74.3385 344.592 73.4844C344.592 72.7865 344.519 72.0417 344.374 71.25C344.228 70.4479 344.077 69.6458 343.921 68.8438L347.233 68C347.421 68.8958 347.566 69.7812 347.671 70.6562C347.785 71.5312 347.842 72.3646 347.842 73.1562C347.842 74.4688 347.665 75.6406 347.311 76.6719C346.957 77.7031 346.368 78.5156 345.546 79.1094C344.723 79.7031 343.603 80 342.186 80Z" fill="white"/>
<defs>
<linearGradient id="paint0_linear_86_291" x1="408.03" y1="2" x2="408.03" y2="142" gradientUnits="userSpaceOnUse">
<stop stop-color="#FFEA29"/>
<stop offset="0.0729167" stop-color="#FFCD29"/>
<stop offset="0.90625" stop-color="#FFCD29"/>
<stop offset="1" stop-color="#FFA929"/>
</linearGradient>
<linearGradient id="paint1_linear_86_291" x1="192.03" y1="2" x2="192.03" y2="142" gradientUnits="userSpaceOnUse">
<stop stop-color="#FFEA29"/>
<stop offset="0.0729167" stop-color="#FFCD29"/>
<stop offset="0.90625" stop-color="#FFCD29"/>
<stop offset="1" stop-color="#FFA929"/>
</linearGradient>
</defs>
</svg>
