<svg width="440" height="144" viewBox="0 0 440 144" fill="none" xmlns="http://www.w3.org/2000/svg"><path d="M381.569 2a2 2 0 0 1 1.561.75l54.4 68a2 2 0 0 1 0 2.5l-54.4 67.999a2 2 0 0 1-1.561.751h-2.039a2 2 0 0 1-2-2V4a2 2 0 0 1 2-2z" fill="url(#a)"/><path d="M377.53 2h4.039a2 2 0 0 1 1.561.75l53.401 66.751a4 4 0 0 1 0 4.998l-53.401 66.75a2 2 0 0 1-1.561.751h-4.039" stroke="#E8A034" stroke-width="4"/><path d="M2.53 6a4 4 0 0 1 4-4h375v140h-375a4 4 0 0 1-4-4z" fill="url(#b)"/><path d="M.53 6a6 6 0 0 1 6-6h375v4h-375a2 2 0 0 0-2 2zm381 138h-375a6 6 0 0 1-6-6h4a2 2 0 0 0 2 2h375zm-375 0a6 6 0 0 1-6-6V6a6 6 0 0 1 6-6v4a2 2 0 0 0-2 2v132a2 2 0 0 0 2 2zm375-142v140z" fill="#E8A034"/><path d="M45.702 87.89q-3.375 0-5.469-1.265-2.094-1.25-3.062-3.375-.954-2.126-.954-4.734 0-1.75.36-3.594.375-1.86 1.047-3.64l3.062 1.202a35 35 0 0 0-.86 3.063 13.6 13.6 0 0 0-.343 2.953q0 1.595.563 2.922.578 1.344 1.921 2.125 1.36.797 3.735.797 1.703 0 3.078-.328 1.39-.313 2.36-.844.968-.516 1.484-1.14.53-.626.53-1.22 0-.375-.218-.671-.219-.297-.797-.297h-2.531a7 7 0 0 1-1.844-.235 3.55 3.55 0 0 1-1.422-.765q-.593-.531-.922-1.422-.328-.89-.328-2.203 0-1.578.5-3a8.2 8.2 0 0 1 1.453-2.547 6.7 6.7 0 0 1 2.266-1.766q1.344-.64 3-.64a7.3 7.3 0 0 1 1.969.28 6.6 6.6 0 0 1 1.937.923l-1.14 3.078a6 6 0 0 0-1.407-.531 5.5 5.5 0 0 0-1.343-.172q-1.235 0-2.125.578A3.76 3.76 0 0 0 48.858 73q-.468.984-.469 2.219 0 .594.281.828t.97.234h2.484q1.593 0 2.484.547a3 3 0 0 1 1.281 1.5q.375.953.375 2.188 0 1.484-.687 2.796-.687 1.328-2.047 2.36-1.344 1.03-3.313 1.625-1.968.594-4.515.594M70.062 80q-.907 0-1.595-.219-.672-.234-1.078-.531a11.8 11.8 0 0 1-1.36 4.094q-1.046 1.89-2.937 3.219-1.875 1.328-4.734 1.89l-1.187-3.219q2.421-.531 3.984-1.515 1.578-.97 2.344-2.438.765-1.454.765-3.453 0-1.374-.36-2.969a32 32 0 0 0-.874-3.125l3.297-1.093.875 3.39q.312 1.187.953 1.797.64.594 1.734.594h.594V80zm-.204 0v-3.578h2.953v-.313q0-1.593.313-3.296a13 13 0 0 1 1-3.172q.687-1.47 1.812-2.375 1.125-.907 2.75-.907 1.407 0 2.406.672t1.532 1.86q.547 1.171.547 2.687 0 1.453-.563 2.875a9.7 9.7 0 0 1-1.547 2.594 9 9 0 0 1-2.219 1.969 6.3 6.3 0 0 1-2.609.953q.188.704.594 1.422.406.734.969 1.406a7 7 0 0 0 1.265 1.156q.156-1.672.703-3.062.547-1.376 1.422-2.375a6.3 6.3 0 0 1 2.078-1.547q1.204-.547 2.64-.547h.517V80h-.547q-1.032 0-1.782.266-.734.266-1.203.828-.469.563-.703 1.437-.219.89-.219 2.11a20 20 0 0 0 .063 1.562l-2.281 2.188a12.7 12.7 0 0 1-3.047-2.141 13.3 13.3 0 0 1-2.328-2.906A11.1 11.1 0 0 1 73.077 80zm8.734-10.187q-.656 0-1.156.546-.485.532-.812 1.438a10.4 10.4 0 0 0-.5 2.016q-.157 1.125-.157 2.296v.329a4 4 0 0 0 2.11-.688 4.7 4.7 0 0 0 1.531-1.719 4.7 4.7 0 0 0 .578-2.297q0-.921-.437-1.421-.438-.5-1.157-.5m21.438-11.126 2.281 2.282-2.281 2.281-2.281-2.281zm2.703 3.97 2.281 2.28-2.281 2.282-2.297-2.281zm-5.39 0 2.28 2.28-2.28 2.282-2.297-2.281zM96.685 80q-1.703 0-2.719-.578a4.6 4.6 0 0 1-1.64-1.625 5.54 5.54 0 0 1-1.953 1.625q-1.156.578-3.14.578h-1.437v-3.578h1.468q1.25 0 2.032-.25.78-.25 1.14-.89.375-.657.375-1.876a21 21 0 0 0-.078-1.703q-.046-.562-.094-1.187l3.188-.391.281 3.688q.078 1.187.719 1.906.64.703 1.89.703 1.5 0 2.016-.734.531-.734.531-2.282 0-.25-.015-.687a21 21 0 0 0-.063-1.016q-.046-.562-.094-1.187l3.188-.391.281 3.688q.063 1.124.578 1.874.516.735 1.703.735.766 0 1.188-.39.438-.407.625-1.079t.187-1.453q0-.828-.14-1.687a20 20 0 0 0-.297-1.594q-.156-.75-.281-1.172l3.281-.89q.297 1.14.484 2.406.188 1.265.188 2.53 0 1.798-.5 3.376-.485 1.577-1.625 2.547-1.125.968-3.078.984-1.47 0-2.407-.594a4.9 4.9 0 0 1-1.546-1.625q-.844 1.078-1.891 1.656-1.047.564-2.344.563m33.266 7.75q-2.969 0-4.906-1.062a6.65 6.65 0 0 1-2.86-3.032q-.922-1.953-.922-4.625 0-1.719.375-3.547a22.5 22.5 0 0 1 1.032-3.562l3.046 1.203a37 37 0 0 0-.843 3 13.2 13.2 0 0 0-.36 2.969q0 1.625.563 2.765.578 1.157 1.765 1.75 1.203.61 3.11.61 1.828 0 2.953-.688 1.14-.672 1.672-2.031.531-1.343.531-3.375V58.313h3.328v14.609q0 1.64.563 2.578.562.922 2.281.922h.469V80h-.438q-1.156 0-1.75-.234a4.8 4.8 0 0 1-1.187-.766q-.063 2.126-.61 3.75-.547 1.64-1.593 2.75-1.032 1.125-2.594 1.688-1.547.561-3.625.562m15.781-22.594q1.14.75 2.141 1.453a32 32 0 0 1 1.859 1.375q.86.688 1.563 1.438.719.734 1.281 1.594.578.858 1 1.875.516 1.25 1.015 2.03.516.783 1.235 1.141.719.36 1.844.36h.437V80h-.437q-1.797 0-3.047-.61-1.234-.624-2.157-2.03a6.3 6.3 0 0 1-1.64 1.515q-.923.578-2.328.86-1.391.265-3.547.265h-3.813v-3.578h3.797q1.875 0 3.047-.188 1.188-.203 1.75-.703.578-.5.578-1.406 0-.641-.5-1.312-.484-.688-1.297-1.376a21 21 0 0 0-1.781-1.374q-.969-.688-1.953-1.36a38 38 0 0 1-1.813-1.312 3.04 3.04 0 0 1-.875-1.079 3.2 3.2 0 0 1-.296-1.343q0-.765.375-1.39.39-.642 1.187-.954l11.594-4.719v3.516zm25.984-6.469 2.282 2.282-2.282 2.281-2.281-2.281zm2.704 3.97 2.281 2.28-2.281 2.282-2.297-2.281zm-5.391 0 2.281 2.28-2.281 2.282-2.297-2.281zM176.561 80q-1.453 0-2.406-.594a4.9 4.9 0 0 1-1.547-1.625q-.844 1.078-1.891 1.656-1.047.564-2.343.563-1.704 0-2.719-.578a4.6 4.6 0 0 1-1.641-1.625 5.54 5.54 0 0 1-1.953 1.625q-1.157.578-3.14.578h-1.438v-3.578h1.469q1.25 0 2.031-.25t1.141-.89q.375-.657.375-1.876a22 22 0 0 0-.078-1.703q-.048-.562-.094-1.187l3.187-.391.282 3.688q.078 1.187.718 1.906.641.703 1.891.703 1.5 0 2.016-.734.531-.734.531-2.282 0-.25-.016-.687-.015-.453-.062-1.016-.048-.562-.094-1.187l3.187-.391.282 3.688q.062 1.124.578 1.874.531.735 1.703.735.718 0 1.156-.344.453-.36.656-1.031.219-.672.219-1.64 0-.564-.047-1.36a83 83 0 0 0-.125-1.797l3.188-.39.281 3.953q.078 1.343.766 1.984.702.624 2.031.625h.469V80h-.438q-1.547 0-2.656-.547-1.094-.562-1.594-1.625-.656 1-1.547 1.594-.89.578-2.328.578m18.141-8.453a2.03 2.03 0 0 0-1.313.484 5 5 0 0 0-1.047 1.203q-.453.735-.796 1.47.483.468.937.827.453.36.875.61.609.375 1.141.546.531.172.953.172 1.016 0 1.484-.593.485-.594.485-1.579 0-1.343-.719-2.234-.719-.906-2-.906m.75 8.812q-1.063 0-2.016-.312a8.3 8.3 0 0 1-1.844-.89 16 16 0 0 1-1.843-1.391q-.625.67-1.235 1.187a4.5 4.5 0 0 1-1.375.781q-.781.266-1.937.266h-.688v-3.578h.61q.921 0 1.593-.594.672-.61 1.235-1.547.578-.953 1.156-2.015.594-1.063 1.328-2.016a6.1 6.1 0 0 1 1.735-1.547q1.015-.594 2.437-.594 1.844 0 3.188.875a5.84 5.84 0 0 1 2.093 2.344q.75 1.454.75 3.203 0 1.766-.593 3.078a4.64 4.64 0 0 1-1.75 2.032q-1.156.718-2.844.718m41.609-21.671 2.281 2.28-2.281 2.282-2.281-2.281zm2.703 3.968 2.282 2.282-2.282 2.28-2.297-2.28zm-5.39 0 2.281 2.282-2.281 2.28-2.297-2.28zM233.717 80q-.906 0-1.578-.234a5.4 5.4 0 0 1-1.172-.594q-.14 2.64-1.234 4.64t-3.187 3.11q-2.094 1.125-5.219 1.125-3.375 0-5.469-1.266-2.094-1.25-3.062-3.375-.954-2.125-.954-4.734 0-1.75.36-3.594.375-1.86 1.047-3.64l3.062 1.203a35 35 0 0 0-.859 3.062 13.6 13.6 0 0 0-.344 2.953q0 1.595.563 2.922.578 1.344 1.921 2.125 1.36.797 3.735.797 2.453 0 3.812-.797 1.375-.78 1.938-2.11.578-1.311.578-2.89 0-1.78-.531-3.578a36 36 0 0 0-1.047-3.172l3.328-1.281.984 3.062q.406 1.25 1.203 1.97.797.717 2.157.718 1.5 0 2.015-.766.531-.765.532-2.297a21 21 0 0 0-.079-1.656q-.047-.562-.093-1.187l3.187-.391.281 3.688q.078 1.124.579 1.874.515.735 1.718.735.75 0 1.172-.39.438-.407.625-1.079.188-.672.188-1.453 0-.828-.141-1.687a19 19 0 0 0-.297-1.594q-.157-.75-.265-1.172l3.265-.89q.297 1.14.485 2.406.187 1.265.187 2.53 0 1.798-.5 3.376-.484 1.577-1.609 2.547-1.126.968-3.094.984-1.469 0-2.406-.594a4.9 4.9 0 0 1-1.547-1.625q-.844 1.078-1.891 1.656-1.031.564-2.344.563m13.063 8.453-1.203-3.219q2.421-.531 3.984-1.515 1.578-.97 2.344-2.438.766-1.454.766-3.453 0-1.374-.36-2.969a31 31 0 0 0-.875-3.125l3.297-1.093a20.6 20.6 0 0 1 .875 3.375 19 19 0 0 1 .313 3.359q0 2.907-1.047 5.188a9.74 9.74 0 0 1-3.078 3.796q-2.032 1.516-5.016 2.094m16.187-30.14v21.671h-3.328V58.313zM269.702 63l2.5 2.5-2.5 2.5-2.5-2.5zm5.797 17q-.907 0-1.594-.219-.672-.234-1.078-.531a11.8 11.8 0 0 1-1.36 4.094q-1.047 1.89-2.937 3.219-1.875 1.328-4.734 1.89l-1.188-3.219q2.423-.531 3.984-1.515 1.579-.97 2.344-2.438.766-1.454.766-3.453 0-1.374-.36-2.969a31 31 0 0 0-.875-3.125l3.297-1.093.875 3.39q.313 1.187.953 1.797.641.594 1.735.594h.594V80zm1.218-18.828v-2l12.235-4.969v2zm3.172 3.984q1.157.765 2.297 1.547t2.141 1.61a13.4 13.4 0 0 1 1.765 1.75 7.6 7.6 0 0 1 1.219 1.953q.438 1.015.438 2.171 0 2.172-.985 3.438-.984 1.266-2.922 1.828-1.921.547-4.734.547h-3.812v-3.578h3.796q1.875 0 3.047-.188 1.188-.203 1.75-.703.578-.5.578-1.406 0-.641-.5-1.312-.485-.688-1.296-1.376a21 21 0 0 0-1.782-1.374q-.969-.688-1.953-1.36a38 38 0 0 1-1.812-1.312 3 3 0 0 1-.875-1.079 3.1 3.1 0 0 1-.297-1.312q0-.735.375-1.39.39-.673 1.187-.985l11.594-4.719v3.516zm35.469-1.281 2.406 2.39-2.406 2.422-2.375-2.421zm-5.219 0 2.407 2.39-2.407 2.422-2.39-2.421zm11.703 6.234 3.172-.39.297 4.015q.078 1.36.75 2.032.672.656 2.078.656h.375V80h-.375q-1.765 0-2.937-.656-1.156-.672-1.906-2-1.344 1.422-3.375 2.047-2.032.609-5.485.609h-2.609q-2.844 0-5.094-.36-2.234-.359-3.797-1.203-1.562-.843-2.39-2.265-.813-1.422-.813-3.578 0-1.219.266-2.375.281-1.172.703-2.203l3 1.125q-.25.702-.469 1.578a7.2 7.2 0 0 0-.203 1.64q0 1.282.609 2.079.625.796 1.766 1.234 1.156.422 2.766.594 1.625.156 3.656.156h2.609q2.39 0 4.078-.266t2.578-.969q.907-.702.907-2.015 0-.704-.047-1.531a43 43 0 0 0-.11-1.532m6.032 6.313h.75V80h-.75zm3.218 5.734 2.5 2.5-2.5 2.5-2.5-2.5zm1.86-12.047 3.172-.39.281 4.015q.047.907.375 1.516.328.594.937.89.625.282 1.563.282h.328V80h-.359q-1.11 0-1.953-.266a4.9 4.9 0 0 1-1.469-.765 5.2 5.2 0 0 1-1.063-1.203 5.44 5.44 0 0 1-2.234 1.671 7.3 7.3 0 0 1-2.828.563h-1.5v-3.578h1.5q1.875 0 2.625-.75.765-.766.765-2.484 0-.813-.046-1.579-.032-.765-.094-1.5m6.015 6.313h1.125V80h-1.125zm4.297-19.078 2.282 2.281-2.282 2.297-2.281-2.297zm2.703 3.968 2.282 2.282-2.282 2.297-2.296-2.297zm-5.39 0 2.281 2.282-2.281 2.297-2.297-2.297zM342.186 80h-2.515v-3.578h2.515q1.39 0 1.891-.828.515-.828.515-2.11 0-1.046-.218-2.234-.219-1.203-.453-2.406l3.312-.844q.281 1.344.438 2.656.171 1.313.171 2.5 0 1.97-.531 3.516t-1.765 2.437-3.36.891" fill="#fff"/><defs><linearGradient id="a" x1="408.03" y1="2" x2="408.03" y2="142" gradientUnits="userSpaceOnUse"><stop stop-color="#FFEA29"/><stop offset=".073" stop-color="#FFCD29"/><stop offset=".906" stop-color="#FFCD29"/><stop offset="1" stop-color="#FFA929"/></linearGradient><linearGradient id="b" x1="192.03" y1="2" x2="192.03" y2="142" gradientUnits="userSpaceOnUse"><stop stop-color="#FFEA29"/><stop offset=".073" stop-color="#FFCD29"/><stop offset=".906" stop-color="#FFCD29"/><stop offset="1" stop-color="#FFA929"/></linearGradient></defs></svg>
