<svg width="440" height="144" xmlns="http://www.w3.org/2000/svg" fill="none"><defs><linearGradient y2="1" x2=".505" y1="0" x1=".505" id="a"><stop stop-color="#24DB7A"/><stop stop-color="#14AE5C" offset=".052"/><stop stop-color="#14AE5C" offset=".938"/><stop stop-color="#0A6423" offset="1"/></linearGradient><linearGradient y2="1" x2=".5" y1="0" x1=".5" id="b"><stop stop-color="#24DB7A"/><stop stop-color="#14AE5C" offset=".052"/><stop stop-color="#14AE5C" offset=".938"/><stop stop-color="#0A6423" offset="1"/></linearGradient><linearGradient y2="1" x2=".48" y1="0" x1=".48" id="c"><stop stop-color="#24DB7A"/><stop stop-color="#14AE5C" offset=".052"/><stop stop-color="#14AE5C" offset=".938"/><stop stop-color="#0A6423" offset="1"/></linearGradient></defs><path fill="url(#a)" d="M383.6 2a2 2 0 0 1 1.561.75l54.4 68a2 2 0 0 1 0 2.5l-54.4 67.999a2 2 0 0 1-1.562.751h-2.038a2 2 0 0 1-2-2V4a2 2 0 0 1 2-2z"/><path stroke-width="4" stroke="#108B4A" d="M378.122 2h4.038a2 2 0 0 1 1.562.75l53.401 66.751a4 4 0 0 1 0 4.998l-53.4 66.75a2 2 0 0 1-1.563.751h-4.038"/><path fill="url(#b)" d="M55 1.725h324.923v140H55z"/><path fill="#108B4A" d="M55.167 4h325.747V0H55.167zm325.747 136H55.167v4h325.747z"/><path fill="#fff" d="m104.281 66.094 2.5 2.5-2.5 2.5-2.5-2.5zm.203 17.281q2.454 0 3.829-.797t1.937-2.125q.563-1.312.563-2.875 0-1.797-.532-3.594a36 36 0 0 0-1.047-3.156l3.329-1.297a26 26 0 0 1 1.171 4.094q.375 1.938.375 3.797 0 2.844-1.046 4.969-1.047 2.14-3.188 3.328-2.125 1.187-5.39 1.187-3.375 0-5.47-1.265-2.093-1.251-3.062-3.375Q95 80.141 95 77.546q0-1.75.36-3.593.374-1.86 1.046-3.656l3.063 1.203a37 37 0 0 0-.86 3.078q-.343 1.531-.343 2.938 0 1.609.562 2.937.578 1.328 1.922 2.125 1.36.797 3.734.797m16.672-25.062v21.671h-3.328V58.313zM133.688 80q-.907 0-1.594-.219-.672-.234-1.078-.531a11.8 11.8 0 0 1-1.36 4.094q-1.047 1.89-2.937 3.219-1.875 1.328-4.735 1.89l-1.187-3.219q2.422-.531 3.984-1.515 1.578-.97 2.344-2.438.765-1.454.766-3.453 0-1.374-.36-2.969a31 31 0 0 0-.875-3.125l3.297-1.093.875 3.39q.313 1.187.953 1.797.641.594 1.735.594h.593V80zm-.219-3.578h.75V80h-.75zm3.219 5.734 2.5 2.5-2.5 2.5-2.5-2.5zM136.313 80h-2.516v-3.578h2.516q1.39 0 1.89-.828.516-.828.516-2.11 0-1.046-.219-2.234-.219-1.203-.453-2.406l3.312-.844a30 30 0 0 1 .438 2.656q.172 1.313.172 2.5 0 1.97-.531 3.516-.532 1.547-1.766 2.437-1.235.891-3.359.891m7.062 8.453-1.203-3.219q2.423-.531 3.984-1.515 1.579-.97 2.344-2.438.765-1.454.766-3.453 0-1.374-.36-2.969a31 31 0 0 0-.875-3.125l3.297-1.093q.578 1.64.875 3.375.313 1.734.313 3.359 0 2.907-1.047 5.188a9.74 9.74 0 0 1-3.078 3.796q-2.031 1.516-5.016 2.094m12.859-30.14h3.329v14.656q0 1.969.656 2.719.672.734 2.265.734h.391V80h-.391q-3.218 0-4.734-1.672-1.515-1.688-1.516-5.203zm10.625 6.843q1.157.765 2.297 1.547t2.141 1.61a13.4 13.4 0 0 1 1.766 1.75q.78.921 1.218 1.953.438 1.015.438 2.171 0 2.172-.985 3.438-.984 1.266-2.921 1.828-1.923.547-4.735.547h-3.812v-3.578h3.797q1.875 0 3.046-.188 1.188-.203 1.75-.703.579-.5.579-1.406 0-.641-.5-1.312-.485-.688-1.297-1.376a21 21 0 0 0-1.782-1.374 123 123 0 0 0-1.953-1.36 38 38 0 0 1-1.812-1.312 3 3 0 0 1-.875-1.079 3.1 3.1 0 0 1-.297-1.312q0-.735.375-1.39.39-.673 1.187-.985l11.594-4.719v3.516zm28.532 22.594q-2.969 0-4.907-1.062a6.66 6.66 0 0 1-2.859-3.032q-.922-1.953-.922-4.625 0-1.719.375-3.547.375-1.843 1.031-3.562l3.047 1.203a37 37 0 0 0-.843 3 13.2 13.2 0 0 0-.36 2.969q0 1.625.563 2.765.578 1.157 1.765 1.75 1.203.61 3.11.61 1.827 0 2.953-.688 1.14-.672 1.672-2.031.531-1.343.531-3.375V58.313h3.328v14.609q0 1.64.563 2.578.562.922 2.281.922h.469V80h-.438q-1.156 0-1.75-.234a4.8 4.8 0 0 1-1.187-.766q-.063 2.126-.61 3.75-.547 1.64-1.594 2.75-1.031 1.125-2.593 1.688-1.548.561-3.625.562m21.375-16.203a2.03 2.03 0 0 0-1.313.484 5 5 0 0 0-1.047 1.203q-.453.735-.797 1.47.485.468.938.827.453.36.875.61.609.375 1.141.546.53.172.953.172 1.016 0 1.484-.593.484-.594.484-1.579 0-1.343-.718-2.234-.719-.906-2-.906m.75 8.812a6.4 6.4 0 0 1-2.016-.312 8.3 8.3 0 0 1-1.844-.89 16 16 0 0 1-1.843-1.391q-.626.67-1.235 1.187a4.5 4.5 0 0 1-1.375.781q-.781.266-1.937.266h-.688v-3.578h.61q.921 0 1.593-.594.672-.61 1.235-1.547.578-.953 1.156-2.015.593-1.063 1.328-2.016a6.1 6.1 0 0 1 1.734-1.547q1.017-.594 2.438-.594 1.844 0 3.187.875a5.83 5.83 0 0 1 2.094 2.344q.75 1.454.75 3.203 0 1.766-.594 3.078a4.6 4.6 0 0 1-1.75 2.032q-1.155.718-2.843.718m8.906-22.046h3.328v14.656q0 1.969.656 2.719.672.734 2.266.734h.391V80h-.391q-3.219 0-4.734-1.672-1.516-1.688-1.516-5.203zm16.062 12.093q-.718 0-1.828.094-1.109.094-2.156.406a29 29 0 0 0 1.781 1.922 53 53 0 0 0 1.563 1.484l.64.563.375-.328q.391-.329 1-.89.61-.564 1.297-1.282.704-.72 1.344-1.469a10.7 10.7 0 0 0-2.156-.406 23 23 0 0 0-1.86-.094m0-3.297q1.22 0 2.547.188 1.329.187 2.485.562t1.875.938q.718.563.718 1.328 0 .375-.296.969a8.7 8.7 0 0 1-.766 1.25 27 27 0 0 1-1.063 1.375q-.578.687-1.171 1.297-.579.609-1.047 1.062a9.6 9.6 0 0 0 1.703.297q.812.047 1.484.047h2.438V80h-2.422q-1.72 0-3.344-.406a13.2 13.2 0 0 1-3.141-1.235 11.6 11.6 0 0 1-2.343.922q-1.329.36-2.703.547a20 20 0 0 1-2.516.172h-2.469v-3.578h2.485q.453 0 1.218-.016a22 22 0 0 0 1.61-.094 8.6 8.6 0 0 0 1.468-.25 25 25 0 0 1-1.078-1.046A29 29 0 0 1 237 73.719a35 35 0 0 1-1.047-1.375q-.484-.688-.781-1.266t-.297-.953q0-.765.703-1.328.718-.563 1.875-.938 1.156-.375 2.485-.562a18 18 0 0 1 2.546-.188m8.282 9.313h1.109V80h-1.109zm6.89-15.594 2.407 2.39-2.407 2.423-2.375-2.422zm-5.218 0 2.406 2.39-2.406 2.423-2.391-2.422zM253.969 80h-2.516v-3.578h2.516q1.39 0 1.89-.828.516-.828.516-2.11 0-1.046-.219-2.234-.219-1.203-.453-2.406l3.313-.844q.28 1.344.437 2.656.172 1.313.172 2.5 0 1.97-.531 3.516t-1.766 2.437-3.359.891m28.562-3.016q0 3.297-1.218 5.61-1.219 2.328-3.563 3.765-2.328 1.438-5.672 2.079l-1.203-3.22q2.281-.452 4-1.218 1.734-.75 2.797-1.844 1.078-1.078 1.391-2.469-.516.141-1.141.25-.626.11-1.109.11-2.875 0-4.438-1.25-1.547-1.266-1.547-3.938 0-1.203.36-2.421a7.9 7.9 0 0 1 1.062-2.266 5.8 5.8 0 0 1 1.75-1.656q1.047-.625 2.391-.625 1.578 0 2.734.765t1.906 2.078q.75 1.297 1.125 2.922a14.6 14.6 0 0 1 .375 3.328m-5.703-.5a9 9 0 0 0 2.485-.343 11 11 0 0 0-.297-1.844 6 6 0 0 0-.563-1.531q-.344-.656-.875-1.016-.516-.36-1.219-.36-.906 0-1.421.579a3.3 3.3 0 0 0-.704 1.36 5.6 5.6 0 0 0-.203 1.39q0 1.015.735 1.39.734.375 2.062.375m25.828-2.64q0-.39-.187-1.031a8 8 0 0 0-.391-1.157l-2.906-6.5 3-1.437 3.687 8.61q.61 1.42 1.079 2.327.468.906.968 1.344.501.422 1.203.422h.657V80h-.657q-1.203 0-2.015-.297a4 4 0 0 1-1.406-.86 9.4 9.4 0 0 1-1.157-1.39 6.8 6.8 0 0 1-1.75 1.406q-.984.563-2.265.844-1.266.282-2.907.281-1.203 0-2.125-.093a17 17 0 0 1-1.781-.313v-3.562q.954.218 1.891.328t1.781.11q1.578-.001 2.75-.266 1.188-.267 1.859-.844.672-.579.672-1.5m6.453 2.578h1.25V80h-1.25zm5.657 5.844 2.406 2.39-2.406 2.422-2.375-2.422zm-5.219 0 2.406 2.39-2.406 2.422-2.391-2.422zm5.172-12.157 3.172-.39.281 4.015q.046.907.375 1.516.328.594.937.89.625.282 1.563.282h.328V80h-.359q-1.11 0-1.953-.266a4.9 4.9 0 0 1-1.469-.765 5.2 5.2 0 0 1-1.063-1.203 5.44 5.44 0 0 1-2.234 1.671 7.3 7.3 0 0 1-2.828.563h-1.5v-3.578h1.5q1.875 0 2.625-.75.765-.766.765-2.484 0-.813-.046-1.579-.032-.765-.094-1.5m6.047 6.313h2.359V80h-2.359zM325.219 80h-2.516v-3.578h2.516q1.39 0 1.89-.828.516-.828.516-2.11 0-1.046-.219-2.234-.219-1.203-.453-2.406l3.313-.844q.28 1.344.437 2.656.172 1.313.172 2.5 0 1.97-.531 3.516t-1.766 2.437-3.359.891m2.265 2.266 2.407 2.39-2.407 2.422-2.375-2.422zm-5.218 0 2.406 2.39-2.406 2.422-2.391-2.422zm12.406-25.063a4.1 4.1 0 0 1-.875-.937q-.328-.532-.328-1.407 0-1.358.953-2.234.953-.89 2.156-.89.594 0 1.047.14.453.125.906.39l.016 1.672a3.3 3.3 0 0 0-.922-.328 4.5 4.5 0 0 0-.828-.078q-.657 0-1.203.39-.547.392-.547 1.142.015.453.453.874.438.422 1.281.297a.7.7 0 0 0 .141-.047l2.156-.765.235 1.656-6.079 2.406-.234-1.625zm-.063 3.14h3.329V72.97q0 1.969.656 2.719.672.734 2.265.734h.391V80h-.391q-3.171 0-4.718-1.672-1.532-1.672-1.532-5.187zm6.032 16.079h1.828V80h-1.828zm7.672-15.594 2.406 2.39-2.406 2.423-2.375-2.422zm-5.219 0 2.406 2.39-2.406 2.423-2.391-2.422zM344.625 80h-2.516v-3.578h2.516q1.39 0 1.891-.828.515-.828.515-2.11 0-1.046-.218-2.234-.219-1.203-.454-2.406l3.313-.844q.28 1.344.437 2.656.172 1.313.172 2.5 0 1.97-.531 3.516t-1.766 2.437q-1.233.891-3.359.891"/><path fill="url(#c)" d="M2.766 5.25C1.72 3.94 2.651 2 4.328 2h49.839a2 2 0 0 1 2 2v136a2 2 0 0 1-2 2H4.327c-1.676 0-2.608-1.94-1.56-3.249l52.4-65.502a2 2 0 0 0 0-2.498z"/><path stroke-width="4" stroke="#108B4A" d="M56.167 2H4.327C2.652 2 1.72 3.94 2.768 5.25l52.4 65.5a2 2 0 0 1 0 2.5l-52.4 65.501C1.718 140.06 2.65 142 4.326 142h51.84"/></svg>
