<svg width="437" height="144" viewBox="0 0 437 144" fill="none" xmlns="http://www.w3.org/2000/svg">
<path d="M378.205 2C378.813 2 379.388 2.27618 379.767 2.75061L434.167 70.7506C434.752 71.481 434.752 72.519 434.167 73.2494L379.767 141.249C379.388 141.724 378.813 142 378.205 142H376.167C375.062 142 374.167 141.105 374.167 140V4C374.167 2.89543 375.062 2 376.167 2H378.205Z" fill="url(#paint0_linear_86_290)"/>
<path d="M374.167 2H378.205C378.813 2 379.388 2.27618 379.767 2.75061L433.168 69.5012C434.336 70.9621 434.336 73.0379 433.168 74.4988L379.767 141.249C379.388 141.724 378.813 142 378.205 142H374.167" stroke="#108B4A" stroke-width="4"/>
<path d="M55.1667 2H378.167V142H55.1667V2Z" fill="url(#paint1_linear_86_290)"/>
<path d="M55.1667 4H378.167V0H55.1667V4ZM378.167 140H55.1667V144H378.167V140Z" fill="#108B4A"/>
<path d="M98.3073 66.0938L100.807 68.5938L98.3073 71.0938L95.8073 68.5938L98.3073 66.0938ZM98.5104 83.375C100.146 83.375 101.422 83.1094 102.339 82.5781C103.255 82.0469 103.901 81.3385 104.276 80.4531C104.651 79.5781 104.839 78.6198 104.839 77.5781C104.839 76.3802 104.661 75.1823 104.307 73.9844C103.964 72.7865 103.615 71.7344 103.26 70.8281L106.589 69.5312C107.12 70.9688 107.51 72.3333 107.76 73.625C108.01 74.9167 108.135 76.1823 108.135 77.4219C108.135 79.3177 107.786 80.974 107.089 82.3906C106.391 83.8177 105.328 84.9271 103.901 85.7188C102.484 86.5104 100.688 86.9062 98.5104 86.9062C96.2604 86.9062 94.4375 86.4844 93.0417 85.6406C91.6459 84.8073 90.625 83.6823 89.9792 82.2656C89.3438 80.849 89.0261 79.276 89.0261 77.5469C89.0261 76.3802 89.1459 75.1823 89.3854 73.9531C89.6354 72.7135 89.9844 71.4948 90.4323 70.2969L93.4948 71.5C93.1615 72.5208 92.875 73.5469 92.6354 74.5781C92.4063 75.599 92.2917 76.5781 92.2917 77.5156C92.2917 78.5885 92.4792 79.5677 92.8542 80.4531C93.2396 81.3385 93.8802 82.0469 94.7761 82.5781C95.6823 83.1094 96.9271 83.375 98.5104 83.375ZM115.182 58.3125V79.9844H111.854V58.3125H115.182ZM127.714 80C127.109 80 126.578 79.9271 126.12 79.7812C125.672 79.625 125.313 79.4479 125.042 79.25C124.833 80.7188 124.38 82.0833 123.682 83.3438C122.984 84.6042 122.005 85.6771 120.745 86.5625C119.495 87.4479 117.917 88.0781 116.01 88.4531L114.823 85.2344C116.438 84.8802 117.766 84.375 118.807 83.7188C119.859 83.0729 120.641 82.2604 121.151 81.2812C121.661 80.3125 121.917 79.1615 121.917 77.8281C121.917 76.9115 121.797 75.9219 121.557 74.8594C121.318 73.7969 121.026 72.7552 120.682 71.7344L123.979 70.6406L124.854 74.0312C125.063 74.8229 125.38 75.4219 125.807 75.8281C126.234 76.224 126.813 76.4219 127.542 76.4219H128.135V80H127.714ZM127.495 76.4219H128.245V80H127.495V76.4219ZM130.714 82.1562L133.214 84.6562L130.714 87.1562L128.214 84.6562L130.714 82.1562ZM130.339 80H127.823V76.4219H130.339C131.266 76.4219 131.896 76.1458 132.229 75.5938C132.573 75.0417 132.745 74.3385 132.745 73.4844C132.745 72.7865 132.672 72.0417 132.526 71.25C132.38 70.4479 132.229 69.6458 132.073 68.8438L135.385 68C135.573 68.8958 135.719 69.7812 135.823 70.6562C135.938 71.5312 135.995 72.3646 135.995 73.1562C135.995 74.4688 135.818 75.6406 135.464 76.6719C135.109 77.7031 134.521 78.5156 133.698 79.1094C132.875 79.7031 131.755 80 130.339 80ZM137.401 88.4531L136.198 85.2344C137.813 84.8802 139.141 84.375 140.182 83.7188C141.234 83.0729 142.016 82.2604 142.526 81.2812C143.036 80.3125 143.292 79.1615 143.292 77.8281C143.292 76.9115 143.172 75.9219 142.932 74.8594C142.693 73.7969 142.401 72.7552 142.057 71.7344L145.354 70.6406C145.74 71.7344 146.031 72.8594 146.229 74.0156C146.438 75.1719 146.542 76.2917 146.542 77.375C146.542 79.3125 146.193 81.0417 145.495 82.5625C144.797 84.0833 143.771 85.349 142.417 86.3594C141.063 87.3698 139.391 88.0677 137.401 88.4531ZM150.26 58.3125H153.589V72.9688C153.589 74.2812 153.807 75.1875 154.245 75.6875C154.693 76.1771 155.448 76.4219 156.51 76.4219H156.901V80H156.51C154.365 80 152.786 79.4427 151.776 78.3281C150.766 77.2031 150.26 75.4688 150.26 73.125V58.3125ZM160.885 65.1562C161.656 65.6667 162.422 66.1823 163.182 66.7031C163.943 67.224 164.656 67.7604 165.323 68.3125C165.99 68.8646 166.578 69.4479 167.089 70.0625C167.609 70.6771 168.016 71.3281 168.307 72.0156C168.599 72.6927 168.745 73.4167 168.745 74.1875C168.745 75.6354 168.417 76.7812 167.76 77.625C167.104 78.4688 166.13 79.0781 164.839 79.4531C163.557 79.8177 161.979 80 160.104 80H156.292V76.4219H160.089C161.339 76.4219 162.354 76.3594 163.135 76.2344C163.927 76.099 164.51 75.8646 164.885 75.5312C165.271 75.1979 165.464 74.7292 165.464 74.125C165.464 73.6979 165.297 73.2604 164.964 72.8125C164.641 72.3542 164.208 71.8958 163.667 71.4375C163.125 70.9688 162.531 70.5104 161.885 70.0625C161.24 69.6042 160.589 69.151 159.932 68.7031C159.276 68.2552 158.672 67.8177 158.12 67.3906C157.745 67.099 157.453 66.7396 157.245 66.3125C157.047 65.8854 156.948 65.4479 156.948 65C156.948 64.5104 157.073 64.0469 157.323 63.6094C157.583 63.1615 157.979 62.8333 158.51 62.625L170.104 57.9062V61.4219L160.885 65.1562ZM189.417 87.75C187.438 87.75 185.802 87.3958 184.51 86.6875C183.229 85.9792 182.276 84.9688 181.651 83.6562C181.036 82.3542 180.729 80.8125 180.729 79.0312C180.729 77.8854 180.854 76.7031 181.104 75.4844C181.354 74.2552 181.698 73.0677 182.135 71.9219L185.182 73.125C184.87 74.0729 184.589 75.0729 184.339 76.125C184.099 77.1667 183.979 78.1562 183.979 79.0938C183.979 80.1771 184.167 81.099 184.542 81.8594C184.927 82.6302 185.516 83.2135 186.307 83.6094C187.109 84.0156 188.146 84.2188 189.417 84.2188C190.635 84.2188 191.62 83.9896 192.37 83.5312C193.13 83.0833 193.688 82.4062 194.042 81.5C194.396 80.6042 194.573 79.4792 194.573 78.125V58.3125H197.901V72.9219C197.901 74.0156 198.089 74.875 198.464 75.5C198.839 76.1146 199.599 76.4219 200.745 76.4219H201.214V80H200.776C200.005 80 199.422 79.9219 199.026 79.7656C198.641 79.599 198.245 79.3438 197.839 79C197.797 80.4167 197.594 81.6667 197.229 82.75C196.865 83.8438 196.333 84.7604 195.635 85.5C194.948 86.25 194.083 86.8125 193.042 87.1875C192.01 87.5625 190.802 87.75 189.417 87.75ZM210.792 71.5469C210.313 71.5469 209.875 71.7083 209.479 72.0312C209.094 72.3438 208.745 72.7448 208.432 73.2344C208.13 73.724 207.865 74.2135 207.635 74.7031C207.958 75.0156 208.271 75.2917 208.573 75.5312C208.875 75.7708 209.167 75.974 209.448 76.1406C209.854 76.3906 210.234 76.5729 210.589 76.6875C210.943 76.8021 211.26 76.8594 211.542 76.8594C212.219 76.8594 212.714 76.6615 213.026 76.2656C213.349 75.8698 213.51 75.3438 213.51 74.6875C213.51 73.7917 213.271 73.0469 212.792 72.4531C212.313 71.849 211.646 71.5469 210.792 71.5469ZM211.542 80.3594C210.833 80.3594 210.161 80.2552 209.526 80.0469C208.901 79.8385 208.286 79.5417 207.682 79.1562C207.078 78.7708 206.464 78.3073 205.839 77.7656C205.422 78.2135 205.01 78.6094 204.604 78.9531C204.208 79.2865 203.75 79.5469 203.229 79.7344C202.708 79.9115 202.063 80 201.292 80H200.604V76.4219H201.214C201.828 76.4219 202.359 76.224 202.807 75.8281C203.255 75.4219 203.667 74.9062 204.042 74.2812C204.427 73.6458 204.813 72.974 205.198 72.2656C205.594 71.5573 206.036 70.8854 206.526 70.25C207.016 69.6146 207.594 69.099 208.26 68.7031C208.938 68.3073 209.75 68.1094 210.698 68.1094C211.927 68.1094 212.99 68.401 213.885 68.9844C214.792 69.5677 215.49 70.349 215.979 71.3281C216.479 72.2969 216.729 73.3646 216.729 74.5312C216.729 75.7083 216.531 76.7344 216.135 77.6094C215.74 78.474 215.156 79.151 214.385 79.6406C213.615 80.1198 212.667 80.3594 211.542 80.3594ZM220.448 58.3125H223.776V72.9688C223.776 74.2812 223.995 75.1875 224.432 75.6875C224.88 76.1771 225.635 76.4219 226.698 76.4219H227.089V80H226.698C224.552 80 222.974 79.4427 221.964 78.3281C220.953 77.2031 220.448 75.4688 220.448 73.125V58.3125ZM236.51 70.4062C236.031 70.4062 235.422 70.4375 234.682 70.5C233.943 70.5625 233.224 70.6979 232.526 70.9062C233.099 71.5833 233.693 72.224 234.307 72.8281C234.922 73.4323 235.443 73.9271 235.87 74.3125C236.297 74.6875 236.51 74.875 236.51 74.875C236.51 74.875 236.635 74.7656 236.885 74.5469C237.146 74.3281 237.479 74.0312 237.885 73.6562C238.292 73.2812 238.724 72.8542 239.182 72.375C239.651 71.8958 240.099 71.4062 240.526 70.9062C239.828 70.6979 239.109 70.5625 238.37 70.5C237.63 70.4375 237.01 70.4062 236.51 70.4062ZM236.51 67.1094C237.323 67.1094 238.172 67.1719 239.057 67.2969C239.943 67.4219 240.771 67.6094 241.542 67.8594C242.313 68.1094 242.938 68.4219 243.417 68.7969C243.896 69.1719 244.135 69.6146 244.135 70.125C244.135 70.375 244.036 70.6979 243.839 71.0938C243.651 71.4792 243.396 71.8958 243.073 72.3438C242.75 72.7917 242.396 73.25 242.01 73.7188C241.625 74.1771 241.234 74.6094 240.839 75.0156C240.453 75.4219 240.104 75.776 239.792 76.0781C240.385 76.2344 240.953 76.3333 241.495 76.375C242.036 76.4062 242.531 76.4219 242.979 76.4219H245.417V80H242.995C241.849 80 240.734 79.8646 239.651 79.5938C238.568 79.3229 237.521 78.9115 236.51 78.3594C235.833 78.724 235.052 79.0312 234.167 79.2812C233.281 79.5208 232.38 79.7031 231.464 79.8281C230.557 79.9427 229.719 80 228.948 80H226.479V76.4219H228.964C229.266 76.4219 229.672 76.4167 230.182 76.4062C230.703 76.3958 231.24 76.3646 231.792 76.3125C232.354 76.2604 232.844 76.1771 233.26 76.0625C232.938 75.7708 232.578 75.4219 232.182 75.0156C231.797 74.6094 231.411 74.1771 231.026 73.7188C230.651 73.25 230.302 72.7917 229.979 72.3438C229.656 71.8854 229.396 71.4635 229.198 71.0781C229 70.6927 228.901 70.375 228.901 70.125C228.901 69.6146 229.135 69.1719 229.604 68.7969C230.083 68.4219 230.708 68.1094 231.479 67.8594C232.25 67.6094 233.078 67.4219 233.964 67.2969C234.849 67.1719 235.698 67.1094 236.51 67.1094ZM244.792 76.4219H245.901V80H244.792V76.4219ZM251.682 60.8281L254.089 63.2188L251.682 65.6406L249.307 63.2188L251.682 60.8281ZM246.464 60.8281L248.87 63.2188L246.464 65.6406L244.073 63.2188L246.464 60.8281ZM247.995 80H245.479V76.4219H247.995C248.922 76.4219 249.552 76.1458 249.885 75.5938C250.229 75.0417 250.401 74.3385 250.401 73.4844C250.401 72.7865 250.328 72.0417 250.182 71.25C250.036 70.4479 249.885 69.6458 249.729 68.8438L253.042 68C253.229 68.8958 253.375 69.7812 253.479 70.6562C253.594 71.5312 253.651 72.3646 253.651 73.1562C253.651 74.4688 253.474 75.6406 253.12 76.6719C252.766 77.7031 252.177 78.5156 251.354 79.1094C250.531 79.7031 249.411 80 247.995 80ZM276.557 76.9844C276.557 79.1823 276.151 81.0521 275.339 82.5938C274.526 84.1458 273.339 85.401 271.776 86.3594C270.224 87.3177 268.333 88.0104 266.104 88.4375L264.901 85.2188C266.422 84.9167 267.755 84.5104 268.901 84C270.057 83.5 270.99 82.8854 271.698 82.1562C272.417 81.4375 272.88 80.6146 273.089 79.6875C272.745 79.7812 272.365 79.8646 271.948 79.9375C271.531 80.0104 271.161 80.0469 270.839 80.0469C268.922 80.0469 267.443 79.6302 266.401 78.7969C265.37 77.9531 264.854 76.6406 264.854 74.8594C264.854 74.0573 264.974 73.25 265.214 72.4375C265.453 71.6146 265.807 70.8594 266.276 70.1719C266.755 69.4844 267.339 68.9323 268.026 68.5156C268.724 68.099 269.521 67.8906 270.417 67.8906C271.469 67.8906 272.38 68.1458 273.151 68.6562C273.922 69.1667 274.557 69.8594 275.057 70.7344C275.557 71.599 275.932 72.5729 276.182 73.6562C276.432 74.7292 276.557 75.8385 276.557 76.9844ZM270.854 76.4844C271.302 76.4844 271.74 76.4531 272.167 76.3906C272.594 76.3281 272.984 76.2448 273.339 76.1406C273.286 75.4844 273.188 74.8698 273.042 74.2969C272.906 73.7135 272.719 73.2031 272.479 72.7656C272.25 72.3281 271.958 71.9896 271.604 71.75C271.26 71.5104 270.854 71.3906 270.385 71.3906C269.781 71.3906 269.307 71.5833 268.964 71.9688C268.63 72.3542 268.396 72.8073 268.26 73.3281C268.125 73.849 268.057 74.3125 268.057 74.7188C268.057 75.3958 268.302 75.8594 268.792 76.1094C269.281 76.3594 269.969 76.4844 270.854 76.4844ZM296.682 73.8438C296.682 73.5833 296.62 73.2396 296.495 72.8125C296.38 72.375 296.25 71.9896 296.104 71.6562L293.198 65.1562L296.198 63.7188L299.885 72.3281C300.292 73.276 300.651 74.0521 300.964 74.6562C301.276 75.2604 301.599 75.7083 301.932 76C302.266 76.2812 302.667 76.4219 303.135 76.4219H303.792V80H303.135C302.333 80 301.661 79.901 301.12 79.7031C300.578 79.5052 300.109 79.2188 299.714 78.8438C299.318 78.4583 298.932 77.9948 298.557 77.4531C298.057 78.0156 297.474 78.4844 296.807 78.8594C296.151 79.2344 295.396 79.5156 294.542 79.7031C293.698 79.8906 292.729 79.9844 291.635 79.9844C290.833 79.9844 290.125 79.9531 289.51 79.8906C288.906 79.8177 288.313 79.7135 287.729 79.5781V76.0156C288.365 76.1615 288.995 76.2708 289.62 76.3438C290.245 76.4167 290.839 76.4531 291.401 76.4531C292.453 76.4531 293.37 76.3646 294.151 76.1875C294.943 76.0104 295.563 75.7292 296.01 75.3438C296.458 74.9583 296.682 74.4583 296.682 73.8438ZM303.135 76.4219H304.385V80H303.135V76.4219ZM308.792 82.2656L311.198 84.6562L308.792 87.0781L306.417 84.6562L308.792 82.2656ZM303.573 82.2656L305.979 84.6562L303.573 87.0781L301.182 84.6562L303.573 82.2656ZM308.745 70.1094L311.917 69.7188L312.198 73.7344C312.229 74.3385 312.354 74.8438 312.573 75.25C312.792 75.6458 313.104 75.9427 313.51 76.1406C313.927 76.3281 314.448 76.4219 315.073 76.4219H315.401V80H315.042C314.302 80 313.651 79.9115 313.089 79.7344C312.526 79.5469 312.036 79.2917 311.62 78.9688C311.214 78.6354 310.859 78.2344 310.557 77.7656C309.974 78.5052 309.229 79.0625 308.323 79.4375C307.427 79.8125 306.484 80 305.495 80H303.995V76.4219H305.495C306.745 76.4219 307.62 76.1719 308.12 75.6719C308.63 75.1615 308.885 74.3333 308.885 73.1875C308.885 72.6458 308.87 72.1198 308.839 71.6094C308.818 71.099 308.786 70.599 308.745 70.1094ZM314.792 76.4219H317.151V80H314.792V76.4219ZM319.245 80H316.729V76.4219H319.245C320.172 76.4219 320.802 76.1458 321.135 75.5938C321.479 75.0417 321.651 74.3385 321.651 73.4844C321.651 72.7865 321.578 72.0417 321.432 71.25C321.286 70.4479 321.135 69.6458 320.979 68.8438L324.292 68C324.479 68.8958 324.625 69.7812 324.729 70.6562C324.844 71.5312 324.901 72.3646 324.901 73.1562C324.901 74.4688 324.724 75.6406 324.37 76.6719C324.016 77.7031 323.427 78.5156 322.604 79.1094C321.781 79.7031 320.661 80 319.245 80ZM321.51 82.2656L323.917 84.6562L321.51 87.0781L319.135 84.6562L321.51 82.2656ZM316.292 82.2656L318.698 84.6562L316.292 87.0781L313.901 84.6562L316.292 82.2656ZM328.698 57.2031C328.344 56.9219 328.052 56.6094 327.823 56.2656C327.604 55.9115 327.495 55.4427 327.495 54.8594C327.495 53.9531 327.813 53.2083 328.448 52.625C329.083 52.0312 329.802 51.7344 330.604 51.7344C331 51.7344 331.349 51.7812 331.651 51.875C331.953 51.9583 332.255 52.0885 332.557 52.2656L332.573 53.9375C332.25 53.7708 331.943 53.6615 331.651 53.6094C331.37 53.5573 331.094 53.5312 330.823 53.5312C330.385 53.5312 329.984 53.6615 329.62 53.9219C329.255 54.1823 329.073 54.5625 329.073 55.0625C329.083 55.3646 329.234 55.6562 329.526 55.9375C329.818 56.2188 330.245 56.3177 330.807 56.2344C330.828 56.2344 330.849 56.2292 330.87 56.2188C330.901 56.2083 330.927 56.1979 330.948 56.1875L333.104 55.4219L333.339 57.0781L327.26 59.4844L327.026 57.8594L328.698 57.2031ZM328.635 60.3438H331.964V72.9688C331.964 74.2812 332.182 75.1875 332.62 75.6875C333.068 76.1771 333.823 76.4219 334.885 76.4219H335.276V80H334.885C332.771 80 331.198 79.4427 330.167 78.3281C329.146 77.2135 328.635 75.4844 328.635 73.1406V60.3438ZM334.667 76.4219H336.495V80H334.667V76.4219ZM342.339 60.8281L344.745 63.2188L342.339 65.6406L339.964 63.2188L342.339 60.8281ZM337.12 60.8281L339.526 63.2188L337.12 65.6406L334.729 63.2188L337.12 60.8281ZM338.651 80H336.135V76.4219H338.651C339.578 76.4219 340.208 76.1458 340.542 75.5938C340.885 75.0417 341.057 74.3385 341.057 73.4844C341.057 72.7865 340.984 72.0417 340.839 71.25C340.693 70.4479 340.542 69.6458 340.385 68.8438L343.698 68C343.885 68.8958 344.031 69.7812 344.135 70.6562C344.25 71.5312 344.307 72.3646 344.307 73.1562C344.307 74.4688 344.13 75.6406 343.776 76.6719C343.422 77.7031 342.833 78.5156 342.01 79.1094C341.188 79.7031 340.068 80 338.651 80Z" fill="white"/>
<path d="M2.7662 5.24939C1.71857 3.93986 2.65092 2 4.32794 2H54.1667C55.2713 2 56.1667 2.89543 56.1667 4V140C56.1667 141.105 55.2713 142 54.1667 142H4.32794C2.65092 142 1.71858 140.06 2.7662 138.751L55.1672 73.2494C55.7515 72.5189 55.7515 71.481 55.1672 70.7506L2.7662 5.24939Z" fill="url(#paint2_linear_86_290)"/>
<path d="M56.1667 2H4.32794C2.65092 2 1.71857 3.93986 2.7662 5.24939L55.1672 70.7506C55.7515 71.481 55.7515 72.5189 55.1672 73.2494L2.7662 138.751C1.71858 140.06 2.65092 142 4.32794 142H56.1667" stroke="#108B4A" stroke-width="4"/>
<defs>
<linearGradient id="paint0_linear_86_290" x1="404.667" y1="2" x2="404.667" y2="142" gradientUnits="userSpaceOnUse">
<stop stop-color="#24DB7A"/>
<stop offset="0.0520833" stop-color="#14AE5C"/>
<stop offset="0.9375" stop-color="#14AE5C"/>
<stop offset="1" stop-color="#0A6423"/>
</linearGradient>
<linearGradient id="paint1_linear_86_290" x1="216.667" y1="2" x2="216.667" y2="142" gradientUnits="userSpaceOnUse">
<stop stop-color="#24DB7A"/>
<stop offset="0.0520833" stop-color="#14AE5C"/>
<stop offset="0.9375" stop-color="#14AE5C"/>
<stop offset="1" stop-color="#0A6423"/>
</linearGradient>
<linearGradient id="paint2_linear_86_290" x1="28.1667" y1="2" x2="28.1667" y2="142" gradientUnits="userSpaceOnUse">
<stop stop-color="#24DB7A"/>
<stop offset="0.0520833" stop-color="#14AE5C"/>
<stop offset="0.9375" stop-color="#14AE5C"/>
<stop offset="1" stop-color="#0A6423"/>
</linearGradient>
</defs>
</svg>
