<svg width="440" height="144" xmlns="http://www.w3.org/2000/svg" fill="none"><defs><linearGradient y2="1" x2=".5" y1="0" x1=".5" id="a"><stop stop-color="#61B4F1"/><stop stop-color="#0D99FF" offset=".057"/><stop stop-color="#0D99FF" offset=".948"/><stop stop-color="#084782" offset="1"/></linearGradient><linearGradient y2="1" x2=".48" y1="0" x1=".48" id="b"><stop stop-color="#61B4F1"/><stop stop-color="#0D99FF" offset=".057"/><stop stop-color="#0D99FF" offset=".948"/><stop stop-color="#084782" offset="1"/></linearGradient></defs><path fill="url(#a)" d="M56 2h378.74A5.26 4 0 0 1 440 6v132a5.26 4 0 0 1-5.26 4H56z"/><path fill="#0A7ACC" d="M56.81 0h375.37A7.82 6 0 0 1 440 6h-5.213a2.607 2 0 0 0-2.607-2H56.81zM440 138a7.82 6 0 0 1-7.82 6H56.81v-4h375.37a2.607 2 0 0 0 2.607-2zm-383.19 4V2zM432.18 0A7.82 6 0 0 1 440 6v132a7.82 6 0 0 1-7.82 6v-4a2.607 2 0 0 0 2.607-2V6a2.607 2 0 0 0-2.607-2z"/><path fill="#fff" d="M147.89 80q-.906 0-1.593-.219-.672-.234-1.078-.531a11.8 11.8 0 0 1-1.36 4.094q-1.047 1.89-2.937 3.219-1.875 1.328-4.735 1.89L135 85.234q2.421-.531 3.984-1.515 1.579-.97 2.344-2.438.766-1.454.766-3.453 0-1.374-.36-2.969a32 32 0 0 0-.875-3.125l3.297-1.093.875 3.39q.312 1.187.953 1.797.64.594 1.735.594h.593V80zm-.203 0v-3.578h2.953v-.313q0-1.593.313-3.296a13 13 0 0 1 1-3.172q.687-1.47 1.812-2.375 1.125-.907 2.75-.907 1.407 0 2.407.672t1.531 1.86q.547 1.171.547 2.687 0 1.453-.563 2.875a9.7 9.7 0 0 1-1.547 2.594 9 9 0 0 1-2.218 1.969 6.3 6.3 0 0 1-2.61.953q.188.704.594 1.422.407.734.969 1.406.578.672 1.265 1.156.157-1.672.704-3.062.546-1.376 1.421-2.375a6.3 6.3 0 0 1 2.079-1.547q1.203-.547 2.64-.547h.516V80h-.547q-1.032 0-1.781.266-.735.266-1.203.828-.469.563-.704 1.437-.218.89-.218 2.11a21 21 0 0 0 .062 1.562l-2.281 2.188a12.7 12.7 0 0 1-3.047-2.141 13.3 13.3 0 0 1-2.328-2.906A11.1 11.1 0 0 1 150.906 80zm8.735-10.187q-.657 0-1.157.546-.484.532-.812 1.438a10.3 10.3 0 0 0-.5 2.016q-.156 1.125-.156 2.296v.329a4 4 0 0 0 2.109-.688 4.7 4.7 0 0 0 1.531-1.719 4.7 4.7 0 0 0 .578-2.297q0-.921-.437-1.421-.438-.5-1.156-.5m21.437-11.126 2.281 2.282-2.281 2.281-2.281-2.281zm2.703 3.97 2.282 2.28-2.282 2.282-2.297-2.281zm-5.39 0 2.281 2.28-2.281 2.282-2.297-2.281zM174.515 80q-1.703 0-2.718-.578a4.6 4.6 0 0 1-1.641-1.625 5.54 5.54 0 0 1-1.953 1.625q-1.156.578-3.141.578h-1.437v-3.578h1.469q1.25 0 2.031-.25t1.14-.89q.375-.657.375-1.876a22 22 0 0 0-.078-1.703q-.046-.562-.093-1.187l3.187-.391.281 3.688q.078 1.187.719 1.906.64.703 1.891.703 1.5 0 2.015-.734.532-.734.532-2.282a22 22 0 0 0-.079-1.703q-.047-.562-.093-1.187l3.187-.391.281 3.688q.063 1.124.579 1.874.515.735 1.703.735.765 0 1.187-.39.438-.407.625-1.079.188-.672.188-1.453 0-.828-.141-1.687a19 19 0 0 0-.297-1.594q-.156-.75-.281-1.172l3.281-.89q.297 1.14.485 2.406.187 1.265.187 2.53 0 1.798-.5 3.376-.485 1.577-1.625 2.547-1.125.968-3.078.984-1.469 0-2.406-.594a4.9 4.9 0 0 1-1.547-1.625q-.844 1.078-1.891 1.656-1.047.564-2.344.563m28.407-3.531q1.703 0 2.984-.281 1.297-.282 2.016-.876.718-.609.718-1.609 0-.984-.796-2.062-.782-1.079-2.266-2.188-1.469-1.125-3.578-2.219l1.547-3.156a29 29 0 0 1 3.375 1.969q1.53 1.047 2.64 2.234t1.703 2.516a6.55 6.55 0 0 1 .61 2.797q0 2.203-1 3.625-.984 1.406-2.922 2.078t-4.797.672q-1.125 0-2.141-.094a16 16 0 0 1-1.921-.297v-3.562q1.015.202 2.015.328 1 .125 1.813.125m17.375-8.547q1.343 0 2.422.61 1.094.593 1.89 1.718.813 1.125 1.266 2.688.453 1.562.531 3.484h1.578V80h-1.859a10.4 10.4 0 0 1-1.625 3.734q-1.156 1.688-3.235 2.891-2.077 1.203-5.265 1.813l-1.203-3.22q2.187-.436 3.875-1.156 1.688-.719 2.781-1.734T222.937 80h-2.031q-3.047 0-4.609-1.25-1.547-1.25-1.547-3.89 0-1.157.344-2.376a8 8 0 0 1 1.062-2.25 5.8 5.8 0 0 1 1.734-1.671q1.047-.641 2.407-.641m.515 8.5h2.422a12.3 12.3 0 0 0-.297-2.047q-.203-.922-.562-1.578-.36-.657-.891-1-.516-.344-1.219-.344-.89 0-1.406.563a3.1 3.1 0 0 0-.703 1.312q-.203.766-.203 1.39 0 .986.719 1.344.718.36 2.14.36m6.547 0h.75V80h-.75zm3.219 5.734 2.5 2.5-2.5 2.5-2.5-2.5zm1.859-12.047 3.172-.39.281 4.015q.048.907.375 1.516a2.1 2.1 0 0 0 .938.89q.625.282 1.562.282h.329V80h-.36q-1.108 0-1.953-.266a4.9 4.9 0 0 1-1.469-.765 5.2 5.2 0 0 1-1.062-1.203 5.44 5.44 0 0 1-2.235 1.671 7.25 7.25 0 0 1-2.828.563h-1.5v-3.578h1.5q1.875 0 2.625-.75.766-.766.766-2.484 0-.813-.047-1.579-.031-.765-.094-1.5M238.469 80v-3.578h2.953v-.313q0-1.593.312-3.296a13 13 0 0 1 1-3.172q.688-1.47 1.813-2.375 1.125-.907 2.75-.907 1.406 0 2.406.672t1.531 1.86q.547 1.171.547 2.687 0 1.453-.562 2.875a9.7 9.7 0 0 1-1.547 2.594 9 9 0 0 1-2.219 1.969 6.3 6.3 0 0 1-2.609.953q.187.704.593 1.422.406.734.969 1.406.577.672 1.266 1.156.156-1.672.703-3.062.546-1.376 1.422-2.375a6.3 6.3 0 0 1 2.078-1.547q1.203-.547 2.64-.547h.516V80h-.547q-1.03 0-1.781.266-.735.266-1.203.828-.47.563-.703 1.437-.219.89-.219 2.11 0 .36.016.765.016.407.046.797l-2.281 2.188a12.7 12.7 0 0 1-3.047-2.141 13.3 13.3 0 0 1-2.328-2.906A11.1 11.1 0 0 1 241.687 80zm8.734-10.187q-.657 0-1.156.546-.484.532-.813 1.438a10.4 10.4 0 0 0-.5 2.016q-.156 1.125-.156 2.296v.329a4 4 0 0 0 2.109-.688 4.7 4.7 0 0 0 1.532-1.719 4.7 4.7 0 0 0 .578-2.297q0-.921-.438-1.421t-1.156-.5m7.187 6.609h.75V80h-.75zm3.219 5.734 2.5 2.5-2.5 2.5-2.5-2.5zM257.234 80h-2.515v-3.578h2.515q1.39 0 1.891-.828.516-.828.515-2.11 0-1.046-.218-2.234-.219-1.203-.453-2.406l3.312-.844q.281 1.344.438 2.656.171 1.313.171 2.5 0 1.97-.531 3.516-.532 1.547-1.765 2.437-1.235.891-3.36.891m28.563-3.016q0 3.297-1.219 5.61-1.219 2.328-3.563 3.765-2.328 1.438-5.671 2.079l-1.204-3.22q2.282-.452 4-1.218 1.735-.75 2.797-1.844 1.079-1.078 1.391-2.469-.516.141-1.141.25a6.5 6.5 0 0 1-1.109.11q-2.875 0-4.438-1.25-1.546-1.266-1.546-3.938 0-1.203.359-2.421a8 8 0 0 1 1.062-2.266 5.8 5.8 0 0 1 1.75-1.656q1.047-.625 2.391-.625 1.578 0 2.734.765 1.157.765 1.907 2.078.75 1.297 1.125 2.922a14.6 14.6 0 0 1 .375 3.328m-5.703-.5a9 9 0 0 0 2.484-.343 11 11 0 0 0-.297-1.844 6 6 0 0 0-.562-1.531q-.345-.656-.875-1.016-.516-.36-1.219-.36-.906 0-1.422.579a3.3 3.3 0 0 0-.703 1.36q-.203.78-.203 1.39 0 1.015.734 1.39t2.063.375m30.156-1.718q0-.89-.36-1.61a2.9 2.9 0 0 0-.968-1.156q-.61-.437-1.438-.437-.64 0-1.14.328-.5.313-.875.843a7 7 0 0 0-.672 1.188q-.297.656-.5 1.344.938.42 1.734.75.797.327 1.406.515.625.188 1.032.188.921 0 1.343-.547.438-.563.438-1.406m-9.172-.079a17 17 0 0 1 1-2.624 10 10 0 0 1 1.359-2.094 5.7 5.7 0 0 1 1.766-1.375q1-.485 2.219-.485 1.78 0 3.14.844t2.125 2.344q.782 1.5.782 3.484 0 1.532-.563 2.766a4.46 4.46 0 0 1-1.672 1.969q-1.125.734-2.812.734a6.2 6.2 0 0 1-1.844-.297 20 20 0 0 1-1.844-.672q-.89-.39-1.625-.687-.733-.297-1.203-.297-.532 0-.859.36-.329.343-.5 1.062-.172.718-.25 1.812-.063 1.11-.063 2.625 0 1.172.031 2.203.048 1.032.11 1.922t.109 1.672h-3.39a447 447 0 0 1-.141-2.953 83 83 0 0 1-.047-2.766q0-1.874.109-3.5.126-1.624.532-2.89.405-1.266 1.25-2.078.844-.812 2.281-1.079m19.437-16.374v21.671h-3.328V58.313zm12.688 15.53q0-.39-.188-1.03a8 8 0 0 0-.39-1.157l-2.906-6.5 3-1.437 3.687 8.61q.61 1.42 1.078 2.327.47.906.969 1.344.5.422 1.203.422h.656V80h-.656q-1.203 0-2.016-.297a4 4 0 0 1-1.406-.86 9.4 9.4 0 0 1-1.156-1.39 6.8 6.8 0 0 1-1.75 1.406q-.984.563-2.266.844-1.265.282-2.906.281-1.203 0-2.125-.093a17 17 0 0 1-1.781-.313v-3.562q.952.218 1.89.328t1.782.11q1.577-.001 2.75-.266 1.187-.267 1.859-.844.672-.579.672-1.5m16.234-17.827 2.407 2.39-2.407 2.422-2.375-2.422zm-5.218 0 2.406 2.39-2.406 2.422-2.391-2.422zm3.203 14.937q.671 0 1.328-.094.671-.108 1.328-.28a11 11 0 0 0-.297-1.454 6.5 6.5 0 0 0-.547-1.406 3.05 3.05 0 0 0-.828-1.031q-.5-.407-1.203-.407-.828 0-1.359.516-.516.5-.766 1.219-.25.718-.25 1.39 0 .969.687 1.266.704.28 1.907.281m-1.797 5.469q1.578 0 2.578-.172 1.016-.173 1.5-.734.5-.563.516-1.735a11.6 11.6 0 0 1-2.891.36q-2.688 0-4.156-1.11-1.453-1.125-1.453-3.484a7.9 7.9 0 0 1 .656-3.125q.656-1.563 1.89-2.578 1.25-1.032 2.969-1.032 1.625 0 2.781.829 1.172.812 1.907 2.187.734 1.375 1.093 3.094.36 1.719.36 3.531 0 2.376-.453 3.86-.453 1.485-1.407 2.296-.953.797-2.453 1.094t-3.625.297h-5.75v-3.578zm14.797-18.11v21.672h-3.328V58.313z"/><path fill="url(#b)" d="M2.973 5.25C1.925 3.94 2.858 2 4.535 2h49.839a2 2 0 0 1 2 2v136a2 2 0 0 1-2 2H4.533c-1.676 0-2.609-1.94-1.56-3.249l52.4-65.502a2 2 0 0 0 0-2.498z"/><path stroke-width="4" stroke="#0A7ACC" d="M56.374 2H4.533C2.859 2 1.926 3.94 2.974 5.25l52.401 65.5a2 2 0 0 1 0 2.5l-52.402 65.5c-1.048 1.31-.115 3.25 1.562 3.25h51.838"/></svg>
